<svg width="501" height="295" viewBox="0 0 501 295" fill="none" xmlns="http://www.w3.org/2000/svg">
<mask id="path-1-inside-1_67_4477" fill="white">
<path fill-rule="evenodd" clip-rule="evenodd" d="M490.5 0C496.023 0 500.5 4.47715 500.5 10V240C500.5 245.523 496.023 250 490.5 250H310.5C304.977 250 300.604 245.478 299.513 240.064C294.905 217.21 274.712 200 250.5 200C226.288 200 206.095 217.21 201.487 240.064C200.396 245.478 196.023 250 190.5 250H10.5C4.97716 250 0.5 245.523 0.5 240V10C0.5 4.47716 4.97715 0 10.5 0H490.5ZM250.5 295C275.353 295 295.5 274.853 295.5 250C295.5 225.147 275.353 205 250.5 205C225.647 205 205.5 225.147 205.5 250C205.5 274.853 225.647 295 250.5 295Z"/>
</mask>
<path fill-rule="evenodd" clip-rule="evenodd" d="M490.5 0C496.023 0 500.5 4.47715 500.5 10V240C500.5 245.523 496.023 250 490.5 250H310.5C304.977 250 300.604 245.478 299.513 240.064C294.905 217.21 274.712 200 250.5 200C226.288 200 206.095 217.21 201.487 240.064C200.396 245.478 196.023 250 190.5 250H10.5C4.97716 250 0.5 245.523 0.5 240V10C0.5 4.47716 4.97715 0 10.5 0H490.5ZM250.5 295C275.353 295 295.5 274.853 295.5 250C295.5 225.147 275.353 205 250.5 205C225.647 205 205.5 225.147 205.5 250C205.5 274.853 225.647 295 250.5 295Z" fill="url(#paint0_linear_67_4477)"/>
<path d="M299.513 240.064L297.552 240.459L299.513 240.064ZM201.487 240.064L203.448 240.459L201.487 240.064ZM502.5 10C502.5 3.37258 497.127 -2 490.5 -2V2C494.918 2 498.5 5.58172 498.5 10H502.5ZM502.5 240V10H498.5V240H502.5ZM490.5 252C497.127 252 502.5 246.627 502.5 240H498.5C498.5 244.418 494.918 248 490.5 248V252ZM310.5 252H490.5V248H310.5V252ZM297.552 240.459C298.783 246.563 303.797 252 310.5 252V248C306.158 248 302.426 244.393 301.473 239.669L297.552 240.459ZM250.5 202C273.741 202 293.129 218.52 297.552 240.459L301.473 239.669C296.681 215.899 275.683 198 250.5 198V202ZM203.448 240.459C207.871 218.52 227.259 202 250.5 202V198C225.317 198 204.319 215.899 199.527 239.669L203.448 240.459ZM190.5 252C197.203 252 202.217 246.563 203.448 240.459L199.527 239.669C198.574 244.393 194.842 248 190.5 248V252ZM10.5 252H190.5V248H10.5V252ZM-1.5 240C-1.5 246.627 3.87259 252 10.5 252V248C6.08172 248 2.5 244.418 2.5 240H-1.5ZM-1.5 10V240H2.5V10H-1.5ZM10.5 -2C3.87258 -2 -1.5 3.37259 -1.5 10H2.5C2.5 5.58173 6.08172 2 10.5 2V-2ZM490.5 -2H10.5V2H490.5V-2ZM293.5 250C293.5 273.748 274.248 293 250.5 293V297C276.457 297 297.5 275.957 297.5 250H293.5ZM250.5 207C274.248 207 293.5 226.252 293.5 250H297.5C297.5 224.043 276.457 203 250.5 203V207ZM207.5 250C207.5 226.252 226.752 207 250.5 207V203C224.543 203 203.5 224.043 203.5 250H207.5ZM250.5 293C226.752 293 207.5 273.748 207.5 250H203.5C203.5 275.957 224.543 297 250.5 297V293Z" fill="#FF2315" mask="url(#path-1-inside-1_67_4477)"/>
<path d="M256.5 229H244.5V233H256.5V229ZM248.5 255H252.5V243H248.5V255ZM264.56 241.78L267.4 238.94C266.54 237.92 265.6 236.96 264.58 236.12L261.74 238.96C258.64 236.48 254.74 235 250.5 235C240.56 235 232.5 243.06 232.5 253C232.5 262.94 240.54 271 250.5 271C260.46 271 268.5 262.94 268.5 253C268.5 248.76 267.02 244.86 264.56 241.78ZM250.5 267C242.76 267 236.5 260.74 236.5 253C236.5 245.26 242.76 239 250.5 239C258.24 239 264.5 245.26 264.5 253C264.5 260.74 258.24 267 250.5 267Z" fill="white"/>
<defs>
<linearGradient id="paint0_linear_67_4477" x1="0.500048" y1="-4.00008" x2="431.278" y2="297.804" gradientUnits="userSpaceOnUse">
<stop stop-color="#AE0707"/>
<stop offset="0.0529491" stop-color="#AE0707" stop-opacity="0.664344"/>
<stop offset="0.109407" stop-color="#AE0707" stop-opacity="0.44"/>
<stop offset="0.211644" stop-color="#AE0707" stop-opacity="0.25"/>
<stop offset="0.375781" stop-color="#AE0707" stop-opacity="0.05"/>
<stop offset="0.499557" stop-color="#AE0707" stop-opacity="0"/>
<stop offset="0.619204" stop-color="#AE0707" stop-opacity="0.05"/>
<stop offset="0.790121" stop-color="#AE0707" stop-opacity="0.25"/>
<stop offset="0.886969" stop-color="#AE0707" stop-opacity="0.34"/>
<stop offset="0.949705" stop-color="#AE0707" stop-opacity="0.52783"/>
<stop offset="1" stop-color="#AE0707"/>
</linearGradient>
</defs>
</svg>
