<svg width="501" height="295" viewBox="0 0 501 295" fill="none" xmlns="http://www.w3.org/2000/svg">
<mask id="path-1-inside-1_67_4497" fill="white">
<path fill-rule="evenodd" clip-rule="evenodd" d="M490.5 0C496.023 0 500.5 4.47715 500.5 10V240C500.5 245.523 496.023 250 490.5 250H311C305.477 250 301.104 245.478 300.013 240.064C295.405 217.21 275.212 200 251 200C226.788 200 206.595 217.21 201.987 240.064C200.896 245.478 196.523 250 191 250H10.5C4.97715 250 0.5 245.523 0.5 240V10C0.5 4.47716 4.97715 0 10.5 0H490.5ZM251 295C275.853 295 296 274.853 296 250C296 225.147 275.853 205 251 205C226.147 205 206 225.147 206 250C206 274.853 226.147 295 251 295Z"/>
</mask>
<path fill-rule="evenodd" clip-rule="evenodd" d="M490.5 0C496.023 0 500.5 4.47715 500.5 10V240C500.5 245.523 496.023 250 490.5 250H311C305.477 250 301.104 245.478 300.013 240.064C295.405 217.21 275.212 200 251 200C226.788 200 206.595 217.21 201.987 240.064C200.896 245.478 196.523 250 191 250H10.5C4.97715 250 0.5 245.523 0.5 240V10C0.5 4.47716 4.97715 0 10.5 0H490.5ZM251 295C275.853 295 296 274.853 296 250C296 225.147 275.853 205 251 205C226.147 205 206 225.147 206 250C206 274.853 226.147 295 251 295Z" fill="url(#paint0_linear_67_4497)"/>
<path d="M300.013 240.064L298.052 240.459L300.013 240.064ZM201.987 240.064L203.948 240.459L201.987 240.064ZM502.5 10C502.5 3.37258 497.127 -2 490.5 -2V2C494.918 2 498.5 5.58172 498.5 10H502.5ZM502.5 240V10H498.5V240H502.5ZM490.5 252C497.127 252 502.5 246.627 502.5 240H498.5C498.5 244.418 494.918 248 490.5 248V252ZM311 252H490.5V248H311V252ZM298.052 240.459C299.283 246.563 304.297 252 311 252V248C306.658 248 302.926 244.393 301.973 239.669L298.052 240.459ZM251 202C274.241 202 293.629 218.52 298.052 240.459L301.973 239.669C297.181 215.899 276.183 198 251 198V202ZM203.948 240.459C208.371 218.52 227.759 202 251 202V198C225.817 198 204.819 215.899 200.027 239.669L203.948 240.459ZM191 252C197.703 252 202.717 246.563 203.948 240.459L200.027 239.669C199.074 244.393 195.342 248 191 248V252ZM10.5 252H191V248H10.5V252ZM-1.5 240C-1.5 246.627 3.87258 252 10.5 252V248C6.08172 248 2.5 244.418 2.5 240H-1.5ZM-1.5 10V240H2.5V10H-1.5ZM10.5 -2C3.87258 -2 -1.5 3.37259 -1.5 10H2.5C2.5 5.58173 6.08172 2 10.5 2V-2ZM490.5 -2H10.5V2H490.5V-2ZM294 250C294 273.748 274.748 293 251 293V297C276.957 297 298 275.957 298 250H294ZM251 207C274.748 207 294 226.252 294 250H298C298 224.043 276.957 203 251 203V207ZM208 250C208 226.252 227.252 207 251 207V203C225.043 203 204 224.043 204 250H208ZM251 293C227.252 293 208 273.748 208 250H204C204 275.957 225.043 297 251 297V293Z" fill="#FF2315" mask="url(#path-1-inside-1_67_4497)"/>
<path d="M245.08 240.08V256.08L259.08 248.08L245.08 240.08ZM269.08 232.08H233.08C230.88 232.08 229.08 233.88 229.08 236.08V260.08C229.08 262.28 230.88 264.08 233.08 264.08H243.08V268.08H259.08V264.08H269.08C271.28 264.08 273.08 262.28 273.08 260.08V236.08C273.08 233.88 271.28 232.08 269.08 232.08ZM269.08 260.08H233.08V236.08H269.08V260.08Z" fill="white"/>
<defs>
<linearGradient id="paint0_linear_67_4497" x1="0.500048" y1="-4.00008" x2="431.278" y2="297.804" gradientUnits="userSpaceOnUse">
<stop stop-color="#AE0707"/>
<stop offset="0.0529491" stop-color="#AE0707" stop-opacity="0.664344"/>
<stop offset="0.109407" stop-color="#AE0707" stop-opacity="0.44"/>
<stop offset="0.211644" stop-color="#AE0707" stop-opacity="0.25"/>
<stop offset="0.375781" stop-color="#AE0707" stop-opacity="0.05"/>
<stop offset="0.499557" stop-color="#AE0707" stop-opacity="0"/>
<stop offset="0.619204" stop-color="#AE0707" stop-opacity="0.05"/>
<stop offset="0.790121" stop-color="#AE0707" stop-opacity="0.25"/>
<stop offset="0.886969" stop-color="#AE0707" stop-opacity="0.34"/>
<stop offset="0.949705" stop-color="#AE0707" stop-opacity="0.52783"/>
<stop offset="1" stop-color="#AE0707"/>
</linearGradient>
</defs>
</svg>
