<svg width="500" height="295" viewBox="0 0 500 295" fill="none" xmlns="http://www.w3.org/2000/svg">
<mask id="path-1-inside-1_67_4487" fill="white">
<path fill-rule="evenodd" clip-rule="evenodd" d="M490 0C495.523 0 500 4.47715 500 10V240C500 245.523 495.523 250 490 250H310.5C304.977 250 300.604 245.478 299.513 240.064C294.905 217.21 274.712 200 250.5 200C226.288 200 206.095 217.21 201.487 240.064C200.396 245.478 196.023 250 190.5 250H10C4.47715 250 0 245.523 0 240V10C0 4.47716 4.47715 0 10 0H490ZM250.5 295C275.353 295 295.5 274.853 295.5 250C295.5 225.147 275.353 205 250.5 205C225.647 205 205.5 225.147 205.5 250C205.5 274.853 225.647 295 250.5 295Z"/>
</mask>
<path fill-rule="evenodd" clip-rule="evenodd" d="M490 0C495.523 0 500 4.47715 500 10V240C500 245.523 495.523 250 490 250H310.5C304.977 250 300.604 245.478 299.513 240.064C294.905 217.21 274.712 200 250.5 200C226.288 200 206.095 217.21 201.487 240.064C200.396 245.478 196.023 250 190.5 250H10C4.47715 250 0 245.523 0 240V10C0 4.47716 4.47715 0 10 0H490ZM250.5 295C275.353 295 295.5 274.853 295.5 250C295.5 225.147 275.353 205 250.5 205C225.647 205 205.5 225.147 205.5 250C205.5 274.853 225.647 295 250.5 295Z" fill="url(#paint0_linear_67_4487)"/>
<path d="M299.513 240.064L297.552 240.459L299.513 240.064ZM201.487 240.064L203.448 240.459L201.487 240.064ZM502 10C502 3.37258 496.627 -2 490 -2V2C494.418 2 498 5.58172 498 10H502ZM502 240V10H498V240H502ZM490 252C496.627 252 502 246.627 502 240H498C498 244.418 494.418 248 490 248V252ZM310.5 252H490V248H310.5V252ZM297.552 240.459C298.783 246.563 303.797 252 310.5 252V248C306.158 248 302.426 244.393 301.473 239.669L297.552 240.459ZM250.5 202C273.741 202 293.129 218.52 297.552 240.459L301.473 239.669C296.681 215.899 275.683 198 250.5 198V202ZM203.448 240.459C207.871 218.52 227.259 202 250.5 202V198C225.317 198 204.319 215.899 199.527 239.669L203.448 240.459ZM190.5 252C197.203 252 202.217 246.563 203.448 240.459L199.527 239.669C198.574 244.393 194.842 248 190.5 248V252ZM10 252H190.5V248H10V252ZM-2 240C-2 246.627 3.37258 252 10 252V248C5.58172 248 2 244.418 2 240H-2ZM-2 10V240H2V10H-2ZM10 -2C3.37258 -2 -2 3.37259 -2 10H2C2 5.58173 5.58172 2 10 2V-2ZM490 -2H10V2H490V-2ZM293.5 250C293.5 273.748 274.248 293 250.5 293V297C276.457 297 297.5 275.957 297.5 250H293.5ZM250.5 207C274.248 207 293.5 226.252 293.5 250H297.5C297.5 224.043 276.457 203 250.5 203V207ZM207.5 250C207.5 226.252 226.752 207 250.5 207V203C224.543 203 203.5 224.043 203.5 250H207.5ZM250.5 293C226.752 293 207.5 273.748 207.5 250H203.5C203.5 275.957 224.543 297 250.5 297V293Z" fill="#FF2315" mask="url(#path-1-inside-1_67_4487)"/>
<path d="M270.5 241.07H252.5V245.07H270.5V241.07ZM270.5 257.07H252.5V261.07H270.5V257.07ZM237.58 249.07L230.5 241.99L233.32 239.17L237.56 243.41L246.04 234.93L248.86 237.75L237.58 249.07ZM237.58 265.07L230.5 257.99L233.32 255.17L237.56 259.41L246.04 250.93L248.86 253.75L237.58 265.07Z" fill="white"/>
<defs>
<linearGradient id="paint0_linear_67_4487" x1="4.84288e-05" y1="-4.00008" x2="430.778" y2="297.804" gradientUnits="userSpaceOnUse">
<stop stopColor="#AE0707"/>
<stop offset="0.0529491" stopColor="#AE0707" stop-opacity="0.664344"/>
<stop offset="0.109407" stopColor="#AE0707" stop-opacity="0.44"/>
<stop offset="0.211644" stopColor="#AE0707" stop-opacity="0.25"/>
<stop offset="0.375781" stopColor="#AE0707" stop-opacity="0.05"/>
<stop offset="0.499557" stopColor="#AE0707" stop-opacity="0"/>
<stop offset="0.619204" stopColor="#AE0707" stop-opacity="0.05"/>
<stop offset="0.790121" stopColor="#AE0707" stop-opacity="0.25"/>
<stop offset="0.886969" stopColor="#AE0707" stop-opacity="0.34"/>
<stop offset="0.949705" stopColor="#AE0707" stop-opacity="0.52783"/>
<stop offset="1" stopColor="#AE0707"/>
</linearGradient>
</defs>
</svg>
