<svg width="1920" height="358" viewBox="0 0 1920 358" fill="none" xmlns="http://www.w3.org/2000/svg">
<mask id="path-1-outside-1_67_4827" maskUnits="userSpaceOnUse" x="-299" y="-1" width="2519" height="360" fill="black">
<rect fill="white" x="-299" y="-1" width="2519" height="360"/>
<path d="M-297.193 88C-297.193 32 -267.693 -2.14577e-06 -213.693 -2.14577e-06C-159.693 -2.14577e-06 -130.193 32 -130.193 88V270C-130.193 326 -159.693 358 -213.693 358C-267.693 358 -297.193 326 -297.193 270V88ZM-242.193 273.5C-242.193 298.5 -231.193 308 -213.693 308C-196.193 308 -185.193 298.5 -185.193 273.5V84.5C-185.193 59.5 -196.193 50 -213.693 50C-231.193 50 -242.193 59.5 -242.193 84.5V273.5ZM-45.4512 100.5V354H-94.9512V3.99998H-25.9512L30.5488 213.5V3.99998H79.5488V354H23.0488L-45.4512 100.5ZM118.928 3.99998H173.928V304H264.428V354H118.928V3.99998ZM288.361 3.99998H343.361V354H288.361V3.99998ZM432.576 100.5V354H383.076V3.99998H452.076L508.576 213.5V3.99998H557.576V354H501.076L432.576 100.5ZM651.955 151.5H727.455V201.5H651.955V304H746.955V354H596.955V3.99998H746.955V54H651.955V151.5ZM842.674 3.99998H1012.67V54H955.174V354H900.174V54H842.674V3.99998ZM1151.9 354C1148.9 345 1146.9 339.5 1146.9 311V256C1146.9 223.5 1135.9 211.5 1110.9 211.5H1091.9V354H1036.9V3.99998H1119.9C1176.9 3.99998 1201.4 30.5 1201.4 84.5V112C1201.4 148 1189.9 171.5 1165.4 183C1192.9 194.5 1201.9 221 1201.9 257.5V311.5C1201.9 328.5 1202.4 341 1207.9 354H1151.9ZM1091.9 54V161.5H1113.4C1133.9 161.5 1146.4 152.5 1146.4 124.5V90C1146.4 65 1137.9 54 1118.4 54H1091.9ZM1416.07 354H1360.57L1351.07 290.5H1283.57L1274.07 354H1223.57L1279.57 3.99998H1360.07L1416.07 354ZM1290.57 243H1343.57L1317.07 66L1290.57 243ZM1441.68 3.99998H1496.68V354H1441.68V3.99998ZM1585.9 100.5V354H1536.4V3.99998H1605.4L1661.9 213.5V3.99998H1710.9V354H1654.4L1585.9 100.5ZM1750.28 3.99998H1805.28V354H1750.28V3.99998ZM1894.49 100.5V354H1844.99V3.99998H1913.99L1970.49 213.5V3.99998H2019.49V354H1962.99L1894.49 100.5ZM2141.37 159H2218.37V270C2218.37 326 2190.37 358 2136.37 358C2082.37 358 2054.37 326 2054.37 270V88C2054.37 32 2082.37 -2.14577e-06 2136.37 -2.14577e-06C2190.37 -2.14577e-06 2218.37 32 2218.37 88V122H2166.37V84.5C2166.37 59.5 2155.37 50 2137.87 50C2120.37 50 2109.37 59.5 2109.37 84.5V273.5C2109.37 298.5 2120.37 307.5 2137.87 307.5C2155.37 307.5 2166.37 298.5 2166.37 273.5V209H2141.37V159Z"/>
</mask>
<path d="M-296.193 88C-296.193 60.1669 -288.863 38.4446 -274.965 23.6855C-261.076 8.93579 -240.494 0.999998 -213.693 0.999998V-1C-240.893 -1 -262.061 7.06419 -276.421 22.3144C-290.773 37.5554 -298.193 59.8331 -298.193 88H-296.193ZM-213.693 0.999998C-186.893 0.999998 -166.311 8.93579 -152.421 23.6855C-138.523 38.4446 -131.193 60.1669 -131.193 88H-129.193C-129.193 59.8331 -136.613 37.5554 -150.965 22.3144C-165.326 7.06419 -186.494 -1 -213.693 -1V0.999998ZM-131.193 88V270H-129.193V88H-131.193ZM-131.193 270C-131.193 297.833 -138.523 319.555 -152.421 334.314C-166.311 349.064 -186.893 357 -213.693 357V359C-186.494 359 -165.326 350.936 -150.965 335.686C-136.613 320.445 -129.193 298.167 -129.193 270H-131.193ZM-213.693 357C-240.494 357 -261.076 349.064 -274.965 334.314C-288.863 319.555 -296.193 297.833 -296.193 270H-298.193C-298.193 298.167 -290.773 320.445 -276.421 335.686C-262.061 350.936 -240.893 359 -213.693 359V357ZM-296.193 270V88H-298.193V270H-296.193ZM-243.193 273.5C-243.193 286.124 -240.419 295.035 -235.25 300.793C-230.062 306.572 -222.621 309 -213.693 309V307C-222.266 307 -229.075 304.678 -233.762 299.457C-238.468 294.215 -241.193 285.876 -241.193 273.5H-243.193ZM-213.693 309C-204.766 309 -197.325 306.572 -192.137 300.793C-186.968 295.035 -184.193 286.124 -184.193 273.5H-186.193C-186.193 285.876 -188.919 294.215 -193.625 299.457C-198.312 304.678 -205.121 307 -213.693 307V309ZM-184.193 273.5V84.5H-186.193V273.5H-184.193ZM-184.193 84.5C-184.193 71.8758 -186.968 62.9647 -192.137 57.2069C-197.325 51.4275 -204.766 49 -213.693 49V51C-205.121 51 -198.312 53.3225 -193.625 58.543C-188.919 63.7852 -186.193 72.1242 -186.193 84.5H-184.193ZM-213.693 49C-222.621 49 -230.062 51.4275 -235.25 57.207C-240.419 62.9647 -243.193 71.8758 -243.193 84.5H-241.193C-241.193 72.1242 -238.468 63.7852 -233.762 58.543C-229.075 53.3225 -222.266 51 -213.693 51V49ZM-243.193 84.5V273.5H-241.193V84.5H-243.193ZM-45.4512 100.5L-44.4858 100.239L-46.4512 100.5H-45.4512ZM-45.4512 354V355H-44.4512V354H-45.4512ZM-94.9512 354H-95.9512V355H-94.9512V354ZM-94.9512 3.99998V2.99998H-95.9512V3.99998H-94.9512ZM-25.9512 3.99998L-24.9857 3.73959L-25.1851 2.99998H-25.9512V3.99998ZM30.5488 213.5L29.5833 213.76L31.5488 213.5H30.5488ZM30.5488 3.99998V2.99998H29.5488V3.99998H30.5488ZM79.5488 3.99998H80.5488V2.99998H79.5488V3.99998ZM79.5488 354V355H80.5488V354H79.5488ZM23.0488 354L22.0835 354.261L22.2832 355H23.0488V354ZM-46.4512 100.5V354H-44.4512V100.5H-46.4512ZM-45.4512 353H-94.9512V355H-45.4512V353ZM-93.9512 354V3.99998H-95.9512V354H-93.9512ZM-94.9512 4.99998H-25.9512V2.99998H-94.9512V4.99998ZM-26.9167 4.26036L29.5833 213.76L31.5143 213.24L-24.9857 3.73959L-26.9167 4.26036ZM31.5488 213.5V3.99998H29.5488V213.5H31.5488ZM30.5488 4.99998H79.5488V2.99998H30.5488V4.99998ZM78.5488 3.99998V354H80.5488V3.99998H78.5488ZM79.5488 353H23.0488V355H79.5488V353ZM24.0142 353.739L-44.4858 100.239L-46.4165 100.761L22.0835 354.261L24.0142 353.739ZM118.928 3.99998V2.99998H117.928V3.99998H118.928ZM173.928 3.99998H174.928V2.99998H173.928V3.99998ZM173.928 304H172.928V305H173.928V304ZM264.428 304H265.428V303H264.428V304ZM264.428 354V355H265.428V354H264.428ZM118.928 354H117.928V355H118.928V354ZM118.928 4.99998H173.928V2.99998H118.928V4.99998ZM172.928 3.99998V304H174.928V3.99998H172.928ZM173.928 305H264.428V303H173.928V305ZM263.428 304V354H265.428V304H263.428ZM264.428 353H118.928V355H264.428V353ZM119.928 354V3.99998H117.928V354H119.928ZM288.361 3.99998V2.99998H287.361V3.99998H288.361ZM343.361 3.99998H344.361V2.99998H343.361V3.99998ZM343.361 354V355H344.361V354H343.361ZM288.361 354H287.361V355H288.361V354ZM288.361 4.99998H343.361V2.99998H288.361V4.99998ZM342.361 3.99998V354H344.361V3.99998H342.361ZM343.361 353H288.361V355H343.361V353ZM289.361 354V3.99998H287.361V354H289.361ZM432.576 100.5L433.542 100.239L431.576 100.5H432.576ZM432.576 354V355H433.576V354H432.576ZM383.076 354H382.076V355H383.076V354ZM383.076 3.99998V2.99998H382.076V3.99998H383.076ZM452.076 3.99998L453.042 3.73959L452.842 2.99998H452.076V3.99998ZM508.576 213.5L507.611 213.76L509.576 213.5H508.576ZM508.576 3.99998V2.99998H507.576V3.99998H508.576ZM557.576 3.99998H558.576V2.99998H557.576V3.99998ZM557.576 354V355H558.576V354H557.576ZM501.076 354L500.111 354.261L500.311 355H501.076V354ZM431.576 100.5V354H433.576V100.5H431.576ZM432.576 353H383.076V355H432.576V353ZM384.076 354V3.99998H382.076V354H384.076ZM383.076 4.99998H452.076V2.99998H383.076V4.99998ZM451.111 4.26036L507.611 213.76L509.542 213.24L453.042 3.73959L451.111 4.26036ZM509.576 213.5V3.99998H507.576V213.5H509.576ZM508.576 4.99998H557.576V2.99998H508.576V4.99998ZM556.576 3.99998V354H558.576V3.99998H556.576ZM557.576 353H501.076V355H557.576V353ZM502.042 353.739L433.542 100.239L431.611 100.761L500.111 354.261L502.042 353.739ZM651.955 151.5H650.955V152.5H651.955V151.5ZM727.455 151.5H728.455V150.5H727.455V151.5ZM727.455 201.5V202.5H728.455V201.5H727.455ZM651.955 201.5V200.5H650.955V201.5H651.955ZM651.955 304H650.955V305H651.955V304ZM746.955 304H747.955V303H746.955V304ZM746.955 354V355H747.955V354H746.955ZM596.955 354H595.955V355H596.955V354ZM596.955 3.99998V2.99998H595.955V3.99998H596.955ZM746.955 3.99998H747.955V2.99998H746.955V3.99998ZM746.955 54V55H747.955V54H746.955ZM651.955 54V53H650.955V54H651.955ZM651.955 152.5H727.455V150.5H651.955V152.5ZM726.455 151.5V201.5H728.455V151.5H726.455ZM727.455 200.5H651.955V202.5H727.455V200.5ZM650.955 201.5V304H652.955V201.5H650.955ZM651.955 305H746.955V303H651.955V305ZM745.955 304V354H747.955V304H745.955ZM746.955 353H596.955V355H746.955V353ZM597.955 354V3.99998H595.955V354H597.955ZM596.955 4.99998H746.955V2.99998H596.955V4.99998ZM745.955 3.99998V54H747.955V3.99998H745.955ZM746.955 53H651.955V55H746.955V53ZM650.955 54V151.5H652.955V54H650.955ZM842.674 3.99998V2.99998H841.674V3.99998H842.674ZM1012.67 3.99998H1013.67V2.99998H1012.67V3.99998ZM1012.67 54V55H1013.67V54H1012.67ZM955.174 54V53H954.174V54H955.174ZM955.174 354V355H956.174V354H955.174ZM900.174 354H899.174V355H900.174V354ZM900.174 54H901.174V53H900.174V54ZM842.674 54H841.674V55H842.674V54ZM842.674 4.99998H1012.67V2.99998H842.674V4.99998ZM1011.67 3.99998V54H1013.67V3.99998H1011.67ZM1012.67 53H955.174V55H1012.67V53ZM954.174 54V354H956.174V54H954.174ZM955.174 353H900.174V355H955.174V353ZM901.174 354V54H899.174V354H901.174ZM900.174 53H842.674V55H900.174V53ZM843.674 54V3.99998H841.674V54H843.674ZM1151.9 354L1150.95 354.316L1151.18 355H1151.9V354ZM1091.9 211.5V210.5H1090.9V211.5H1091.9ZM1091.9 354V355H1092.9V354H1091.9ZM1036.9 354H1035.9V355H1036.9V354ZM1036.9 3.99998V2.99998H1035.9V3.99998H1036.9ZM1165.4 183L1164.97 182.095L1162.93 183.053L1165.01 183.923L1165.4 183ZM1207.9 354V355H1209.41L1208.82 353.61L1207.9 354ZM1091.9 54V53H1090.9V54H1091.9ZM1091.9 161.5H1090.9V162.5H1091.9V161.5ZM1152.85 353.684C1151.35 349.188 1150.12 345.636 1149.26 339.67C1148.4 333.679 1147.9 325.235 1147.9 311H1145.9C1145.9 325.265 1146.4 333.821 1147.28 339.955C1148.17 346.114 1149.45 349.812 1150.95 354.316L1152.85 353.684ZM1147.9 311V256H1145.9V311H1147.9ZM1147.9 256C1147.9 239.682 1145.14 228.261 1139.04 220.923C1132.9 213.537 1123.54 210.5 1110.9 210.5V212.5C1123.25 212.5 1131.9 215.463 1137.5 222.202C1143.15 228.989 1145.9 239.818 1145.9 256H1147.9ZM1110.9 210.5H1091.9V212.5H1110.9V210.5ZM1090.9 211.5V354H1092.9V211.5H1090.9ZM1091.9 353H1036.9V355H1091.9V353ZM1037.9 354V3.99998H1035.9V354H1037.9ZM1036.9 4.99998H1119.9V2.99998H1036.9V4.99998ZM1119.9 4.99998C1148.26 4.99998 1168.32 11.5948 1181.31 24.7038C1194.3 37.8143 1200.4 57.6302 1200.4 84.5H1202.4C1202.4 57.3698 1196.24 36.9356 1182.73 23.2962C1169.22 9.65513 1148.53 2.99998 1119.9 2.99998V4.99998ZM1200.4 84.5V112H1202.4V84.5H1200.4ZM1200.4 112C1200.4 147.783 1188.99 170.821 1164.97 182.095L1165.82 183.905C1190.8 172.179 1202.4 148.217 1202.4 112H1200.4ZM1165.01 183.923C1191.93 195.179 1200.9 221.109 1200.9 257.5H1202.9C1202.9 220.891 1193.87 193.821 1165.78 182.077L1165.01 183.923ZM1200.9 257.5V311.5H1202.9V257.5H1200.9ZM1200.9 311.5C1200.9 328.499 1201.39 341.184 1206.98 354.39L1208.82 353.61C1203.4 340.816 1202.9 328.501 1202.9 311.5H1200.9ZM1207.9 353H1151.9V355H1207.9V353ZM1090.9 54V161.5H1092.9V54H1090.9ZM1091.9 162.5H1113.4V160.5H1091.9V162.5ZM1113.4 162.5C1123.77 162.5 1132.34 160.225 1138.29 154.203C1144.25 148.186 1147.4 138.624 1147.4 124.5H1145.4C1145.4 138.376 1142.3 147.314 1136.87 152.797C1131.45 158.275 1123.52 160.5 1113.4 160.5V162.5ZM1147.4 124.5V90H1145.4V124.5H1147.4ZM1147.4 90C1147.4 77.4256 1145.27 68.151 1140.5 62.0116C1135.69 55.8133 1128.34 53 1118.4 53V55C1127.95 55 1134.61 57.6866 1138.92 63.2383C1143.28 68.849 1145.4 77.5744 1145.4 90H1147.4ZM1118.4 53H1091.9V55H1118.4V53ZM1416.07 354V355H1417.24L1417.06 353.842L1416.07 354ZM1360.57 354L1359.58 354.148L1359.71 355H1360.57V354ZM1351.07 290.5L1352.06 290.352L1351.93 289.5H1351.07V290.5ZM1283.57 290.5V289.5H1282.71L1282.58 290.352L1283.57 290.5ZM1274.07 354V355H1274.93L1275.06 354.148L1274.07 354ZM1223.57 354L1222.58 353.842L1222.4 355H1223.57V354ZM1279.57 3.99998V2.99998H1278.72L1278.58 3.84199L1279.57 3.99998ZM1360.07 3.99998L1361.06 3.84199L1360.92 2.99998H1360.07V3.99998ZM1290.57 243L1289.58 242.852L1289.41 244H1290.57V243ZM1343.57 243V244H1344.73L1344.56 242.852L1343.57 243ZM1317.07 66L1318.06 65.8519H1316.08L1317.07 66ZM1416.07 353H1360.57V355H1416.07V353ZM1361.56 353.852L1352.06 290.352L1350.08 290.648L1359.58 354.148L1361.56 353.852ZM1351.07 289.5H1283.57V291.5H1351.07V289.5ZM1282.58 290.352L1273.08 353.852L1275.06 354.148L1284.56 290.648L1282.58 290.352ZM1274.07 353H1223.57V355H1274.07V353ZM1224.56 354.158L1280.56 4.15797L1278.58 3.84199L1222.58 353.842L1224.56 354.158ZM1279.57 4.99998H1360.07V2.99998H1279.57V4.99998ZM1359.08 4.15797L1415.08 354.158L1417.06 353.842L1361.06 3.84199L1359.08 4.15797ZM1290.57 244H1343.57V242H1290.57V244ZM1344.56 242.852L1318.06 65.8519L1316.08 66.148L1342.58 243.148L1344.56 242.852ZM1316.08 65.8519L1289.58 242.852L1291.56 243.148L1318.06 66.148L1316.08 65.8519ZM1441.68 3.99998V2.99998H1440.68V3.99998H1441.68ZM1496.68 3.99998H1497.68V2.99998H1496.68V3.99998ZM1496.68 354V355H1497.68V354H1496.68ZM1441.68 354H1440.68V355H1441.68V354ZM1441.68 4.99998H1496.68V2.99998H1441.68V4.99998ZM1495.68 3.99998V354H1497.68V3.99998H1495.68ZM1496.68 353H1441.68V355H1496.68V353ZM1442.68 354V3.99998H1440.68V354H1442.68ZM1585.9 100.5L1586.86 100.239L1584.9 100.5H1585.9ZM1585.9 354V355H1586.9V354H1585.9ZM1536.4 354H1535.4V355H1536.4V354ZM1536.4 3.99998V2.99998H1535.4V3.99998H1536.4ZM1605.4 3.99998L1606.36 3.73959L1606.16 2.99998H1605.4V3.99998ZM1661.9 213.5L1660.93 213.76L1662.9 213.5H1661.9ZM1661.9 3.99998V2.99998H1660.9V3.99998H1661.9ZM1710.9 3.99998H1711.9V2.99998H1710.9V3.99998ZM1710.9 354V355H1711.9V354H1710.9ZM1654.4 354L1653.43 354.261L1653.63 355H1654.4V354ZM1584.9 100.5V354H1586.9V100.5H1584.9ZM1585.9 353H1536.4V355H1585.9V353ZM1537.4 354V3.99998H1535.4V354H1537.4ZM1536.4 4.99998H1605.4V2.99998H1536.4V4.99998ZM1604.43 4.26036L1660.93 213.76L1662.86 213.24L1606.36 3.73959L1604.43 4.26036ZM1662.9 213.5V3.99998H1660.9V213.5H1662.9ZM1661.9 4.99998H1710.9V2.99998H1661.9V4.99998ZM1709.9 3.99998V354H1711.9V3.99998H1709.9ZM1710.9 353H1654.4V355H1710.9V353ZM1655.36 353.739L1586.86 100.239L1584.93 100.761L1653.43 354.261L1655.36 353.739ZM1750.28 3.99998V2.99998H1749.28V3.99998H1750.28ZM1805.28 3.99998H1806.28V2.99998H1805.28V3.99998ZM1805.28 354V355H1806.28V354H1805.28ZM1750.28 354H1749.28V355H1750.28V354ZM1750.28 4.99998H1805.28V2.99998H1750.28V4.99998ZM1804.28 3.99998V354H1806.28V3.99998H1804.28ZM1805.28 353H1750.28V355H1805.28V353ZM1751.28 354V3.99998H1749.28V354H1751.28ZM1894.49 100.5L1895.46 100.239L1893.49 100.5H1894.49ZM1894.49 354V355H1895.49V354H1894.49ZM1844.99 354H1843.99V355H1844.99V354ZM1844.99 3.99998V2.99998H1843.99V3.99998H1844.99ZM1913.99 3.99998L1914.96 3.73959L1914.76 2.99998H1913.99V3.99998ZM1970.49 213.5L1969.52 213.76L1971.49 213.5H1970.49ZM1970.49 3.99998V2.99998H1969.49V3.99998H1970.49ZM2019.49 3.99998H2020.49V2.99998H2019.49V3.99998ZM2019.49 354V355H2020.49V354H2019.49ZM1962.99 354L1962.02 354.261L1962.22 355H1962.99V354ZM1893.49 100.5V354H1895.49V100.5H1893.49ZM1894.49 353H1844.99V355H1894.49V353ZM1845.99 354V3.99998H1843.99V354H1845.99ZM1844.99 4.99998H1913.99V2.99998H1844.99V4.99998ZM1913.02 4.26036L1969.52 213.76L1971.46 213.24L1914.96 3.73959L1913.02 4.26036ZM1971.49 213.5V3.99998H1969.49V213.5H1971.49ZM1970.49 4.99998H2019.49V2.99998H1970.49V4.99998ZM2018.49 3.99998V354H2020.49V3.99998H2018.49ZM2019.49 353H1962.99V355H2019.49V353ZM1963.96 353.739L1895.46 100.239L1893.52 100.761L1962.02 354.261L1963.96 353.739ZM2141.37 159V158H2140.37V159H2141.37ZM2218.37 159H2219.37V158H2218.37V159ZM2218.37 122V123H2219.37V122H2218.37ZM2166.37 122H2165.37V123H2166.37V122ZM2166.37 209H2167.37V208H2166.37V209ZM2141.37 209H2140.37V210H2141.37V209ZM2141.37 160H2218.37V158H2141.37V160ZM2217.37 159V270H2219.37V159H2217.37ZM2217.37 270C2217.37 297.846 2210.41 319.569 2196.88 334.324C2183.37 349.065 2163.17 357 2136.37 357V359C2163.57 359 2184.37 350.935 2198.36 335.676C2212.33 320.431 2219.37 298.154 2219.37 270H2217.37ZM2136.37 357C2109.57 357 2089.37 349.065 2075.86 334.324C2062.33 319.569 2055.37 297.846 2055.37 270H2053.37C2053.37 298.154 2060.41 320.431 2074.38 335.676C2088.37 350.935 2109.17 359 2136.37 359V357ZM2055.37 270V88H2053.37V270H2055.37ZM2055.37 88C2055.37 60.1541 2062.33 38.431 2075.86 23.6757C2089.37 8.93483 2109.57 0.999998 2136.37 0.999998V-1C2109.17 -1 2088.37 7.06515 2074.38 22.3243C2060.41 37.569 2053.37 59.8459 2053.37 88H2055.37ZM2136.37 0.999998C2163.17 0.999998 2183.37 8.93483 2196.88 23.6757C2210.41 38.431 2217.37 60.1541 2217.37 88H2219.37C2219.37 59.8459 2212.33 37.569 2198.36 22.3243C2184.37 7.06515 2163.57 -1 2136.37 -1V0.999998ZM2217.37 88V122H2219.37V88H2217.37ZM2218.37 121H2166.37V123H2218.37V121ZM2167.37 122V84.5H2165.37V122H2167.37ZM2167.37 84.5C2167.37 71.8758 2164.59 62.9647 2159.43 57.2069C2154.24 51.4275 2146.8 49 2137.87 49V51C2146.44 51 2153.25 53.3225 2157.94 58.543C2162.64 63.7852 2165.37 72.1242 2165.37 84.5H2167.37ZM2137.87 49C2128.94 49 2121.5 51.4275 2116.31 57.207C2111.14 62.9647 2108.37 71.8758 2108.37 84.5H2110.37C2110.37 72.1242 2113.09 63.7852 2117.8 58.543C2122.49 53.3225 2129.3 51 2137.87 51V49ZM2108.37 84.5V273.5H2110.37V84.5H2108.37ZM2108.37 273.5C2108.37 286.123 2111.14 294.916 2116.32 300.551C2121.51 306.205 2128.96 308.5 2137.87 308.5V306.5C2129.28 306.5 2122.47 304.295 2117.79 299.198C2113.09 294.084 2110.37 285.877 2110.37 273.5H2108.37ZM2137.87 308.5C2146.78 308.5 2154.22 306.205 2159.42 300.551C2164.59 294.916 2167.37 286.123 2167.37 273.5H2165.37C2165.37 285.877 2162.64 294.084 2157.95 299.198C2153.26 304.295 2146.46 306.5 2137.87 306.5V308.5ZM2167.37 273.5V209H2165.37V273.5H2167.37ZM2166.37 208H2141.37V210H2166.37V208ZM2142.37 209V159H2140.37V209H2142.37Z" fill="white" fill-opacity="0.1" mask="url(#path-1-outside-1_67_4827)"/>
</svg>
