<svg width="1322" height="358" viewBox="0 0 1322 358" fill="none" xmlns="http://www.w3.org/2000/svg">
<mask id="path-1-outside-1_67_4693" maskUnits="userSpaceOnUse" x="-1" y="-1" width="1324" height="360" fill="black">
<rect fill="white" x="-1" y="-1" width="1324" height="360"/>
<path d="M0.533204 88C0.533204 32 30.0332 -2.14577e-06 84.0332 -2.14577e-06C138.033 -2.14577e-06 167.533 32 167.533 88V270C167.533 326 138.033 358 84.0332 358C30.0332 358 0.533204 326 0.533204 270V88ZM55.5332 273.5C55.5332 298.5 66.5332 308 84.0332 308C101.533 308 112.533 298.5 112.533 273.5V84.5C112.533 59.5 101.533 50 84.0332 50C66.5332 50 55.5332 59.5 55.5332 84.5V273.5ZM187.275 3.99998H357.275V54H299.775V354H244.775V54H187.275V3.99998ZM487.498 90C487.498 58.5 476.498 50 458.998 50C441.498 50 429.998 59.5 429.998 84.5V113H379.498V87C379.498 31 406.498 -2.14577e-06 460.498 -2.14577e-06C514.498 -2.14577e-06 542.498 32 542.498 88V97C542.498 134.5 530.498 158 503.998 169C531.498 181 542.498 207 542.498 242.5V270C542.498 326 514.498 358 460.498 358C406.498 358 378.498 326 378.498 270V231.5H430.498V273.5C430.498 298.5 441.498 308 458.998 308C476.498 308 487.498 299.5 487.498 268.5V241C487.498 208.5 476.498 196.5 451.498 196.5H437.998V146.5H454.498C474.998 146.5 487.498 137.5 487.498 109.5V90ZM579.74 354V3.99998H634.74V135.5H660.74C715.74 135.5 742.74 166 742.74 222V267.5C742.74 323.5 715.74 354 660.74 354H579.74ZM774.24 354V3.99998H829.24V354H774.24ZM660.74 304C678.24 304 687.74 296 687.74 271V218.5C687.74 193.5 678.24 185.5 660.74 185.5H634.74V304H660.74ZM952.291 3.99998C1009.29 3.99998 1033.79 30.5 1033.79 84.5V97C1033.79 133 1022.79 156 998.291 167.5C1027.79 179 1039.29 205.5 1039.29 242.5V271C1039.29 325 1010.79 354 955.791 354H869.291V3.99998H952.291ZM924.291 54V146.5H945.791C966.291 146.5 978.791 137.5 978.791 109.5V90C978.791 65 970.291 54 950.791 54H924.291ZM924.291 196.5V304H955.791C974.291 304 984.291 295.5 984.291 269.5V239C984.291 206.5 973.791 196.5 948.791 196.5H924.291ZM1072.42 354V3.99998H1127.42V135.5H1153.42C1208.42 135.5 1235.42 166 1235.42 222V267.5C1235.42 323.5 1208.42 354 1153.42 354H1072.42ZM1266.92 354V3.99998H1321.92V354H1266.92ZM1153.42 304C1170.92 304 1180.42 296 1180.42 271V218.5C1180.42 193.5 1170.92 185.5 1153.42 185.5H1127.42V304H1153.42Z"/>
</mask>
<path d="M1.5332 88C1.5332 60.1669 8.86311 38.4446 22.7612 23.6855C36.6506 8.93579 57.2324 0.999998 84.0332 0.999998V-1C56.834 -1 35.6658 7.06419 21.3052 22.3144C6.9533 37.5554 -0.466796 59.8331 -0.466796 88H1.5332ZM84.0332 0.999998C110.834 0.999998 131.416 8.93579 145.305 23.6855C159.203 38.4446 166.533 60.1669 166.533 88H168.533C168.533 59.8331 161.113 37.5554 146.761 22.3144C132.401 7.06419 111.232 -1 84.0332 -1V0.999998ZM166.533 88V270H168.533V88H166.533ZM166.533 270C166.533 297.833 159.203 319.555 145.305 334.314C131.416 349.064 110.834 357 84.0332 357V359C111.232 359 132.401 350.936 146.761 335.686C161.113 320.445 168.533 298.167 168.533 270H166.533ZM84.0332 357C57.2324 357 36.6506 349.064 22.7612 334.314C8.86311 319.555 1.5332 297.833 1.5332 270H-0.466796C-0.466796 298.167 6.9533 320.445 21.3052 335.686C35.6658 350.936 56.834 359 84.0332 359V357ZM1.5332 270V88H-0.466796V270H1.5332ZM54.5332 273.5C54.5332 286.124 57.3076 295.035 62.4766 300.793C67.6649 306.572 75.106 309 84.0332 309V307C75.4604 307 68.6515 304.678 63.9648 299.457C59.2588 294.215 56.5332 285.876 56.5332 273.5H54.5332ZM84.0332 309C92.9604 309 100.401 306.572 105.59 300.793C110.759 295.035 113.533 286.124 113.533 273.5H111.533C111.533 285.876 108.808 294.215 104.102 299.457C99.4149 304.678 92.606 307 84.0332 307V309ZM113.533 273.5V84.5H111.533V273.5H113.533ZM113.533 84.5C113.533 71.8758 110.759 62.9647 105.59 57.2069C100.401 51.4275 92.9604 49 84.0332 49V51C92.606 51 99.4149 53.3225 104.102 58.543C108.808 63.7852 111.533 72.1242 111.533 84.5H113.533ZM84.0332 49C75.106 49 67.6649 51.4275 62.4766 57.207C57.3076 62.9647 54.5332 71.8758 54.5332 84.5H56.5332C56.5332 72.1242 59.2588 63.7852 63.9648 58.543C68.6515 53.3225 75.4604 51 84.0332 51V49ZM54.5332 84.5V273.5H56.5332V84.5H54.5332ZM187.275 3.99998V2.99998H186.275V3.99998H187.275ZM357.275 3.99998H358.275V2.99998H357.275V3.99998ZM357.275 54V55H358.275V54H357.275ZM299.775 54V53H298.775V54H299.775ZM299.775 354V355H300.775V354H299.775ZM244.775 354H243.775V355H244.775V354ZM244.775 54H245.775V53H244.775V54ZM187.275 54H186.275V55H187.275V54ZM187.275 4.99998H357.275V2.99998H187.275V4.99998ZM356.275 3.99998V54H358.275V3.99998H356.275ZM357.275 53H299.775V55H357.275V53ZM298.775 54V354H300.775V54H298.775ZM299.775 353H244.775V355H299.775V353ZM245.775 354V54H243.775V354H245.775ZM244.775 53H187.275V55H244.775V53ZM188.275 54V3.99998H186.275V54H188.275ZM429.998 113V114H430.998V113H429.998ZM379.498 113H378.498V114H379.498V113ZM503.998 169L503.615 168.076L501.445 168.977L503.598 169.917L503.998 169ZM378.498 231.5V230.5H377.498V231.5H378.498ZM430.498 231.5H431.498V230.5H430.498V231.5ZM437.998 196.5H436.998V197.5H437.998V196.5ZM437.998 146.5V145.5H436.998V146.5H437.998ZM488.498 90C488.498 74.1759 485.744 63.8887 480.586 57.556C475.383 51.1671 467.903 49 458.998 49V51C467.593 51 474.363 53.0828 479.035 58.819C483.753 64.6112 486.498 74.3241 486.498 90H488.498ZM458.998 49C450.072 49 442.512 51.4267 437.2 57.1977C431.902 62.9531 428.998 71.8656 428.998 84.5H430.998C430.998 72.1344 433.844 63.7968 438.671 58.5522C443.484 53.3233 450.424 51 458.998 51V49ZM428.998 84.5V113H430.998V84.5H428.998ZM429.998 112H379.498V114H429.998V112ZM380.498 113V87H378.498V113H380.498ZM380.498 87C380.498 59.1455 387.214 37.676 400.486 23.1751C413.744 8.68975 433.69 0.999998 460.498 0.999998V-1C433.306 -1 412.753 6.81024 399.01 21.8248C385.282 36.8239 378.498 58.8544 378.498 87H380.498ZM460.498 0.999998C487.298 0.999998 507.498 8.93483 521.011 23.6757C534.537 38.431 541.498 60.1541 541.498 88H543.498C543.498 59.8459 536.46 37.569 522.485 22.3243C508.498 7.06515 487.698 -1 460.498 -1V0.999998ZM541.498 88V97H543.498V88H541.498ZM541.498 97C541.498 115.654 538.512 130.726 532.302 142.47C526.104 154.19 516.663 162.66 503.615 168.076L504.381 169.924C517.834 164.34 527.642 155.56 534.07 143.405C540.484 131.274 543.498 115.846 543.498 97H541.498ZM503.598 169.917C530.577 181.689 541.498 207.193 541.498 242.5H543.498C543.498 206.807 532.419 180.311 504.398 168.083L503.598 169.917ZM541.498 242.5V270H543.498V242.5H541.498ZM541.498 270C541.498 297.846 534.537 319.569 521.011 334.324C507.498 349.065 487.298 357 460.498 357V359C487.698 359 508.498 350.935 522.485 335.676C536.46 320.431 543.498 298.154 543.498 270H541.498ZM460.498 357C433.698 357 413.498 349.065 399.985 334.324C386.46 319.569 379.498 297.846 379.498 270H377.498C377.498 298.154 384.537 320.431 398.511 335.676C412.498 350.935 433.298 359 460.498 359V357ZM379.498 270V231.5H377.498V270H379.498ZM378.498 232.5H430.498V230.5H378.498V232.5ZM429.498 231.5V273.5H431.498V231.5H429.498ZM429.498 273.5C429.498 286.124 432.272 295.035 437.441 300.793C442.63 306.572 450.071 309 458.998 309V307C450.425 307 443.616 304.678 438.93 299.457C434.224 294.215 431.498 285.876 431.498 273.5H429.498ZM458.998 309C467.903 309 475.379 306.833 480.583 300.51C485.743 294.24 488.498 284.077 488.498 268.5H486.498C486.498 283.923 483.754 293.51 479.038 299.24C474.367 304.917 467.593 307 458.998 307V309ZM488.498 268.5V241H486.498V268.5H488.498ZM488.498 241C488.498 224.682 485.746 213.261 479.642 205.923C473.498 198.537 464.144 195.5 451.498 195.5V197.5C463.853 197.5 472.499 200.463 478.104 207.202C483.75 213.989 486.498 224.818 486.498 241H488.498ZM451.498 195.5H437.998V197.5H451.498V195.5ZM438.998 196.5V146.5H436.998V196.5H438.998ZM437.998 147.5H454.498V145.5H437.998V147.5ZM454.498 147.5C464.872 147.5 473.44 145.225 479.397 139.203C485.348 133.186 488.498 123.624 488.498 109.5H486.498C486.498 123.376 483.398 132.314 477.975 137.797C472.556 143.275 464.624 145.5 454.498 145.5V147.5ZM488.498 109.5V90H486.498V109.5H488.498ZM579.74 354H578.74V355H579.74V354ZM579.74 3.99998V2.99998H578.74V3.99998H579.74ZM634.74 3.99998H635.74V2.99998H634.74V3.99998ZM634.74 135.5H633.74V136.5H634.74V135.5ZM774.24 354H773.24V355H774.24V354ZM774.24 3.99998V2.99998H773.24V3.99998H774.24ZM829.24 3.99998H830.24V2.99998H829.24V3.99998ZM829.24 354V355H830.24V354H829.24ZM634.74 185.5V184.5H633.74V185.5H634.74ZM634.74 304H633.74V305H634.74V304ZM580.74 354V3.99998H578.74V354H580.74ZM579.74 4.99998H634.74V2.99998H579.74V4.99998ZM633.74 3.99998V135.5H635.74V3.99998H633.74ZM634.74 136.5H660.74V134.5H634.74V136.5ZM660.74 136.5C688.058 136.5 708.254 144.07 721.634 158.432C735.025 172.806 741.74 194.145 741.74 222H743.74C743.74 193.855 736.956 171.944 723.097 157.068C709.226 142.18 688.422 134.5 660.74 134.5V136.5ZM741.74 222V267.5H743.74V222H741.74ZM741.74 267.5C741.74 295.355 735.025 316.694 721.634 331.068C708.254 345.43 688.058 353 660.74 353V355C688.422 355 709.226 347.32 723.097 332.432C736.956 317.556 743.74 295.645 743.74 267.5H741.74ZM660.74 353H579.74V355H660.74V353ZM775.24 354V3.99998H773.24V354H775.24ZM774.24 4.99998H829.24V2.99998H774.24V4.99998ZM828.24 3.99998V354H830.24V3.99998H828.24ZM829.24 353H774.24V355H829.24V353ZM660.74 305C669.625 305 676.716 302.97 681.55 297.54C686.356 292.142 688.74 283.589 688.74 271H686.74C686.74 283.411 684.375 291.358 680.056 296.21C675.764 301.03 669.356 303 660.74 303V305ZM688.74 271V218.5H686.74V271H688.74ZM688.74 218.5C688.74 205.911 686.356 197.358 681.55 191.96C676.716 186.53 669.625 184.5 660.74 184.5V186.5C669.356 186.5 675.764 188.469 680.056 193.29C684.375 198.142 686.74 206.089 686.74 218.5H688.74ZM660.74 184.5H634.74V186.5H660.74V184.5ZM633.74 185.5V304H635.74V185.5H633.74ZM634.74 305H660.74V303H634.74V305ZM998.291 167.5L997.866 166.595L995.756 167.585L997.928 168.432L998.291 167.5ZM869.291 354H868.291V355H869.291V354ZM869.291 3.99998V2.99998H868.291V3.99998H869.291ZM924.291 54V53H923.291V54H924.291ZM924.291 146.5H923.291V147.5H924.291V146.5ZM924.291 196.5V195.5H923.291V196.5H924.291ZM924.291 304H923.291V305H924.291V304ZM952.291 4.99998C980.656 4.99998 1000.72 11.5948 1013.71 24.7038C1026.69 37.8143 1032.79 57.6302 1032.79 84.5H1034.79C1034.79 57.3698 1028.64 36.9356 1015.13 23.2962C1001.61 9.65513 980.926 2.99998 952.291 2.99998V4.99998ZM1032.79 84.5V97H1034.79V84.5H1032.79ZM1032.79 97C1032.79 114.908 1030.05 129.49 1024.33 140.992C1018.62 152.472 1009.92 160.938 997.866 166.595L998.716 168.405C1011.16 162.562 1020.21 153.778 1026.12 141.883C1032.03 130.01 1034.79 115.092 1034.79 97H1032.79ZM997.928 168.432C1012.45 174.095 1022.52 183.428 1028.97 195.897C1035.43 208.392 1038.29 224.092 1038.29 242.5H1040.29C1040.29 223.908 1037.4 207.858 1030.74 194.978C1024.07 182.072 1013.63 172.405 998.654 166.568L997.928 168.432ZM1038.29 242.5V271H1040.29V242.5H1038.29ZM1038.29 271C1038.29 297.832 1031.21 318.29 1017.46 332.043C1003.71 345.796 983.123 353 955.791 353V355C983.459 355 1004.63 347.704 1018.87 333.457C1033.12 319.21 1040.29 298.168 1040.29 271H1038.29ZM955.791 353H869.291V355H955.791V353ZM870.291 354V3.99998H868.291V354H870.291ZM869.291 4.99998H952.291V2.99998H869.291V4.99998ZM923.291 54V146.5H925.291V54H923.291ZM924.291 147.5H945.791V145.5H924.291V147.5ZM945.791 147.5C956.165 147.5 964.733 145.225 970.689 139.203C976.641 133.186 979.791 123.624 979.791 109.5H977.791C977.791 123.376 974.691 132.314 969.268 137.797C963.849 143.275 955.917 145.5 945.791 145.5V147.5ZM979.791 109.5V90H977.791V109.5H979.791ZM979.791 90C979.791 77.4256 977.661 68.151 972.893 62.0116C968.08 55.8133 960.733 53 950.791 53V55C960.349 55 967.002 57.6866 971.314 63.2383C975.671 68.849 977.791 77.5744 977.791 90H979.791ZM950.791 53H924.291V55H950.791V53ZM923.291 196.5V304H925.291V196.5H923.291ZM924.291 305H955.791V303H924.291V305ZM955.791 305C965.176 305 972.641 302.844 977.724 297.167C982.78 291.519 985.291 282.592 985.291 269.5H983.291C983.291 282.408 980.802 290.731 976.234 295.833C971.691 300.906 964.906 303 955.791 303V305ZM985.291 269.5V239H983.291V269.5H985.291ZM985.291 239C985.291 222.696 982.669 211.753 976.668 204.903C970.632 198.014 961.39 195.5 948.791 195.5V197.5C961.192 197.5 969.7 199.986 975.164 206.221C980.663 212.497 983.291 222.804 983.291 239H985.291ZM948.791 195.5H924.291V197.5H948.791V195.5ZM1072.42 354H1071.42V355H1072.42V354ZM1072.42 3.99998V2.99998H1071.42V3.99998H1072.42ZM1127.42 3.99998H1128.42V2.99998H1127.42V3.99998ZM1127.42 135.5H1126.42V136.5H1127.42V135.5ZM1266.92 354H1265.92V355H1266.92V354ZM1266.92 3.99998V2.99998H1265.92V3.99998H1266.92ZM1321.92 3.99998H1322.92V2.99998H1321.92V3.99998ZM1321.92 354V355H1322.92V354H1321.92ZM1127.42 185.5V184.5H1126.42V185.5H1127.42ZM1127.42 304H1126.42V305H1127.42V304ZM1073.42 354V3.99998H1071.42V354H1073.42ZM1072.42 4.99998H1127.42V2.99998H1072.42V4.99998ZM1126.42 3.99998V135.5H1128.42V3.99998H1126.42ZM1127.42 136.5H1153.42V134.5H1127.42V136.5ZM1153.42 136.5C1180.73 136.5 1200.93 144.07 1214.31 158.432C1227.7 172.806 1234.42 194.145 1234.42 222H1236.42C1236.42 193.855 1229.63 171.944 1215.77 157.068C1201.9 142.18 1181.1 134.5 1153.42 134.5V136.5ZM1234.42 222V267.5H1236.42V222H1234.42ZM1234.42 267.5C1234.42 295.355 1227.7 316.694 1214.31 331.068C1200.93 345.43 1180.73 353 1153.42 353V355C1181.1 355 1201.9 347.32 1215.77 332.432C1229.63 317.556 1236.42 295.645 1236.42 267.5H1234.42ZM1153.42 353H1072.42V355H1153.42V353ZM1267.92 354V3.99998H1265.92V354H1267.92ZM1266.92 4.99998H1321.92V2.99998H1266.92V4.99998ZM1320.92 3.99998V354H1322.92V3.99998H1320.92ZM1321.92 353H1266.92V355H1321.92V353ZM1153.42 305C1162.3 305 1169.39 302.97 1174.23 297.54C1179.03 292.142 1181.42 283.589 1181.42 271H1179.42C1179.42 283.411 1177.05 291.358 1172.73 296.21C1168.44 301.03 1162.03 303 1153.42 303V305ZM1181.42 271V218.5H1179.42V271H1181.42ZM1181.42 218.5C1181.42 205.911 1179.03 197.358 1174.23 191.96C1169.39 186.53 1162.3 184.5 1153.42 184.5V186.5C1162.03 186.5 1168.44 188.469 1172.73 193.29C1177.05 198.142 1179.42 206.089 1179.42 218.5H1181.42ZM1153.42 184.5H1127.42V186.5H1153.42V184.5ZM1126.42 185.5V304H1128.42V185.5H1126.42ZM1127.42 305H1153.42V303H1127.42V305Z" fill="white" fill-opacity="0.1" mask="url(#path-1-outside-1_67_4693)"/>
</svg>
