<svg width="340" height="68" viewBox="0 0 340 68" fill="none" xmlns="http://www.w3.org/2000/svg">
<mask id="path-1-inside-1_67_4777" fill="white">
<path fill-rule="evenodd" clip-rule="evenodd" d="M11.1812 31.5375C22.7791 31.5375 32.1812 22.1355 32.1812 10.5375C32.1812 5.63963 35.4909 0 40.3887 0H330C335.523 0 340 4.47715 340 10V58C340 63.5228 335.523 68 330 68H10C4.47716 68 0 63.5228 0 58V40.1078C0 34.9865 6.05983 31.5375 11.1812 31.5375Z"/>
</mask>
<path fill-rule="evenodd" clip-rule="evenodd" d="M11.1812 31.5375C22.7791 31.5375 32.1812 22.1355 32.1812 10.5375C32.1812 5.63963 35.4909 0 40.3887 0H330C335.523 0 340 4.47715 340 10V58C340 63.5228 335.523 68 330 68H10C4.47716 68 0 63.5228 0 58V40.1078C0 34.9865 6.05983 31.5375 11.1812 31.5375Z" fill="url(#paint0_linear_67_4777)"/>
<path d="M30.1812 10.5375C30.1812 21.0309 21.6746 29.5375 11.1812 29.5375V33.5375C23.8837 33.5375 34.1812 23.2401 34.1812 10.5375H30.1812ZM40.3887 2H330V-2H40.3887V2ZM338 10V58H342V10H338ZM330 66H10V70H330V66ZM2 58V40.1078H-2V58H2ZM2 40.1078C2 38.4098 2.99763 36.809 4.81385 35.5428C6.63121 34.2759 9.02681 33.5375 11.1812 33.5375V29.5375C8.21417 29.5375 5.01919 30.5236 2.52631 32.2615C0.0322856 34.0002 -2 36.6845 -2 40.1078H2ZM10 66C5.58173 66 2 62.4183 2 58H-2C-2 64.6274 3.3726 70 10 70V66ZM338 58C338 62.4183 334.418 66 330 66V70C336.627 70 342 64.6274 342 58H338ZM330 2C334.418 2 338 5.58172 338 10H342C342 3.37259 336.627 -2 330 -2V2ZM34.1812 10.5375C34.1812 8.49953 34.8818 6.27152 36.0775 4.592C37.2692 2.91813 38.7789 2 40.3887 2V-2C37.1007 -2 34.5066 -0.098314 32.819 2.2721C31.1354 4.63686 30.1812 7.67761 30.1812 10.5375H34.1812Z" fill="#79AE07" mask="url(#path-1-inside-1_67_4777)"/>
<path d="M12.9812 1.53751H9.38115V8.73751H2.18115V12.3375H9.38115V19.5375H12.9812V12.3375H20.1812V8.73751H12.9812V1.53751Z" fill="#79AE07"/>
<defs>
<linearGradient id="paint0_linear_67_4777" x1="6.33299e-07" y1="2.176" x2="107.359" y2="190.216" gradientUnits="userSpaceOnUse">
<stop stopColor="#79AE07"/>
<stop offset="0.0529491" stopColor="#79AE07" stop-opacity="0.664344"/>
<stop offset="0.109407" stopColor="#79AE07" stop-opacity="0.44"/>
<stop offset="0.211644" stopColor="#79AE07" stop-opacity="0.25"/>
<stop offset="0.375781" stopColor="#79AE07" stop-opacity="0.05"/>
<stop offset="0.499557" stopColor="#79AE07" stop-opacity="0"/>
<stop offset="0.619204" stopColor="#79AE07" stop-opacity="0.05"/>
<stop offset="0.790121" stopColor="#79AE07" stop-opacity="0.25"/>
<stop offset="0.886969" stopColor="#79AE07" stop-opacity="0.34"/>
<stop offset="0.949705" stopColor="#79AE07" stop-opacity="0.52783"/>
<stop offset="1" stopColor="#79AE07"/>
</linearGradient>
</defs>
</svg>
