<svg width="183" height="72" viewBox="0 0 183 72" fill="none" xmlns="http://www.w3.org/2000/svg">
<path fill-rule="evenodd" clip-rule="evenodd" d="M8.6199 24.5197L0 9.45518L29.2834 14.5493C29.3359 14.7655 29.4801 15.2529 29.6374 15.4731V16.5155C28.881 16.5752 27.4358 16.7471 26.0385 17.0494C24.924 16.8706 22.1288 16.5908 19.8632 16.9029L7.56958 14.7644L11.8125 22.1794C11.4648 22.5596 10.3396 23.56 8.6199 24.5197ZM26.2351 55.305C28.2018 54.6813 30.148 55.1715 30.8753 55.4945L36.0703 64.5736L44.1839 54.3735C45.6102 55.0343 47.7429 55.1339 48.631 55.1012L35.5374 71.562L26.2351 55.305ZM62.3503 37.8536L74.6147 22.4351L45.056 17.2931V18.9541C45.628 19.3131 46.7639 20.0875 47.7896 20.9431C49.1269 21.1653 52.2382 21.8557 53.9846 22.8387L67.4101 25.1741L60.4374 33.94C60.9464 34.7922 62.0416 36.768 62.3503 37.8536Z" fill="#79AE07"/>
<path d="M36.9209 1.46861C39.8765 1.2377 41.5532 2.31256 42.4799 3.70919C43.4375 5.15224 43.6519 7.02872 43.4682 8.43454L43.4577 8.51503L43.4693 8.59536C43.4725 8.61802 43.4758 8.64067 43.4791 8.66331L43.4836 8.69436C43.6108 9.57308 43.7359 10.437 43.6287 11.2021C43.5242 11.9481 43.2067 12.55 42.4168 12.9372L42.1116 13.0868L42.088 13.426C42.0635 13.7779 42.0334 14.181 42.0012 14.6111L42.0011 14.6122C41.8715 16.3464 41.7092 18.5177 41.7528 19.5299C41.8112 20.4289 41.3407 21.661 41.6342 22.6906C41.6342 22.0961 41.8707 21.7357 42.1864 21.3108C42.2075 21.2825 42.2294 21.2534 42.252 21.2234C42.4081 21.0159 42.5945 20.7683 42.7328 20.467C43.087 20.7111 43.5003 21.0108 43.9104 21.3339C44.6617 21.9257 45.3344 22.5441 45.6469 23.0162L45.8014 23.2496L46.0799 23.2776C47.8245 23.453 49.9454 23.7929 51.7621 24.9682C53.5478 26.1234 55.1049 28.1297 55.6431 31.7838L55.6692 31.9612L55.7897 32.0941C57.4555 33.9313 58.8804 36.3798 59.8802 38.5997C60.3789 39.7068 60.7667 40.7458 61.0238 41.6094C61.2871 42.4935 61.395 43.1343 61.38 43.4715C61.3632 43.85 61.2951 44.0948 61.198 44.2913C61.0971 44.4955 60.9472 44.6846 60.7071 44.9387C60.6199 45.0311 60.5233 45.1293 60.4181 45.2362C59.9432 45.7189 59.2928 46.38 58.5325 47.4912C57.7225 48.6751 55.8732 50.0457 53.7785 51.1004C51.6794 52.1572 49.508 52.8089 48.1096 52.7033C45.5478 52.682 44.4202 53.1343 43.2363 53.4784C44.2311 53.2942 44.6065 53.3357 45.1028 53.437C45.1923 53.4553 45.2862 53.4759 45.3874 53.498C45.9251 53.6156 46.6667 53.7778 48.0208 53.88C49.7493 54.0104 52.1601 53.2363 54.3091 52.1543C56.4623 51.0702 58.5267 49.5893 59.5063 48.1575C60.2026 47.1399 60.7745 46.5578 61.2464 46.0774C61.3581 45.9637 61.4641 45.8558 61.5649 45.7491C61.8288 45.4698 62.0759 45.1783 62.2559 44.814C62.4397 44.442 62.5363 44.0304 62.5588 43.5239C62.5831 42.9762 62.4231 42.1739 62.1547 41.2727C61.8803 40.3509 61.4728 39.2623 60.9561 38.1151C59.9486 35.878 58.5064 33.3755 56.7835 31.4348C56.1758 27.5856 54.4695 25.3143 52.4031 23.9775C50.4372 22.7057 48.2038 22.3194 46.4624 22.1311C46.0115 21.5501 45.3046 20.9301 44.6406 20.407C44.0122 19.9119 43.3753 19.4678 42.9252 19.1755C42.9211 18.1478 43.0572 16.3221 43.1737 14.7595L43.1737 14.7591C43.1979 14.4347 43.2212 14.1217 43.2423 13.8295C44.2378 13.2249 44.664 12.3172 44.7973 11.3658C44.9287 10.428 44.7803 9.40996 44.6592 8.5785L44.6485 8.50523C44.8398 6.91018 44.6 4.77005 43.4631 3.05675C42.2758 1.2674 40.1667 0.0314418 36.829 0.292199C35.1856 0.420588 33.9496 0.8185 33.0242 1.40463C32.0931 1.99434 31.5091 2.75412 31.1423 3.54872C30.7796 4.33476 30.6337 5.14525 30.5581 5.83878C30.5244 6.14764 30.5039 6.44129 30.4861 6.69795L30.4861 6.69806L30.4859 6.70014C30.4838 6.73058 30.4817 6.76049 30.4797 6.78984C30.4595 7.077 30.4417 7.29791 30.4128 7.46889C30.2717 8.30568 30.2087 8.91824 30.2742 9.65248C30.336 10.3449 30.5108 11.1271 30.8065 12.2969C30.6071 13.7417 31.0797 15.084 31.3018 15.6623L31.1703 17.6046C30.7658 17.6303 30.2548 17.6915 29.6971 17.7791C28.8162 17.9174 27.7617 18.1307 26.7075 18.4124C23.0247 17.9237 20.5835 18.0415 18.7793 18.6574C16.9271 19.2896 15.8178 20.4228 14.7596 21.7588C13.7654 23.0139 12.7181 24.2618 10.8925 25.2383C9.36391 26.0559 8.34041 26.8664 7.64858 27.6822C7.48854 27.8475 7.34626 28.0345 7.22417 28.2426C6.52758 29.2817 6.3416 30.275 6.21206 31.1598C6.20038 31.2396 6.18916 31.3179 6.17814 31.3947C6.04431 32.3281 5.94027 33.0538 5.40849 33.7628C5.26782 33.9503 5.1205 34.1398 4.97262 34.33C4.6692 34.7203 4.36346 35.1135 4.10807 35.4993C3.71359 36.0951 3.38612 36.7445 3.25575 37.5224C2.99402 39.0841 3.55621 40.9661 5.3869 43.7619C7.29407 46.6745 9.83655 48.0164 12.3686 48.985C12.9992 49.2263 13.6326 49.4456 14.2531 49.6589L14.3371 49.6877L14.4039 49.7107L14.404 49.7107C14.9748 49.9068 15.5335 50.0986 16.0816 50.3027C17.2739 50.7467 18.3843 51.2373 19.374 51.911C21.5086 53.3641 22.9502 53.8973 24.1391 53.9952C24.7328 54.0441 25.2371 53.982 25.6949 53.898C25.8756 53.8649 26.0367 53.8314 26.1902 53.7994L26.1905 53.7993C26.4489 53.7455 26.6862 53.6961 26.9606 53.6603C27.5913 53.5781 28.4847 53.6624 29.3872 53.8215C30.276 53.9782 31.1149 54.1965 31.6088 54.3475C29.5464 53.2191 28.7546 52.5272 25.8857 52.6569L25.8849 52.6571C25.7419 52.6866 25.6061 52.7147 25.482 52.7374C25.0789 52.8114 24.6871 52.8563 24.236 52.8192C23.3353 52.745 22.0925 52.3341 20.0381 50.9356C18.9333 50.1835 17.7206 49.6539 16.4933 49.1969C15.9302 48.9872 15.3573 48.7905 14.7891 48.5953C14.7382 48.5778 14.6874 48.5604 14.6366 48.5429C14.0156 48.3295 13.3998 48.1161 12.7902 47.8829C10.3614 46.9538 8.08555 45.7292 6.37408 43.1155C4.58613 40.385 4.23383 38.8253 4.41951 37.7174C4.51285 37.1604 4.74956 36.6679 5.09196 36.1507C5.32359 35.8008 5.58103 35.4701 5.86579 35.1043C6.01993 34.9063 6.18209 34.698 6.35249 34.4708C6.78658 33.892 7.01116 33.2926 7.14866 32.7109C7.66713 34.3886 7.75363 36.4074 7.72941 37.2062C8.57922 35.24 8.43196 33.1069 8.2521 32.2861C7.70515 30.565 7.87893 29.4744 8.23879 28.8488C8.32772 28.7199 8.42659 28.5901 8.5368 28.4593C9.10541 27.7842 9.99932 27.0542 11.4491 26.2788C12.2769 25.836 12.9615 25.3419 13.5503 24.8259C13.373 25.8007 13.3247 26.9389 13.5394 28.1798C13.9271 25.4458 15.1353 23.243 15.691 22.4834C16.6925 21.22 17.6277 20.2973 19.1605 19.7741C20.7253 19.2399 22.9823 19.0992 26.6676 19.5976L26.7861 19.6136L26.9015 19.5822C27.9487 19.2973 29.0058 19.082 29.8801 18.9448C30.7763 18.8041 31.4222 18.755 31.6757 18.7751L32.2706 18.8222L32.4004 16.905C32.6111 17.0681 32.8575 17.2379 33.182 17.4567C34.6163 18.424 35.9355 18.4959 36.7607 18.164C35.4475 18.209 32.74 17.6934 32.4154 15.2704C32.2034 14.7188 31.7937 13.5528 31.9898 12.3633L32.0098 12.2416L31.9795 12.1221C31.6636 10.8785 31.5037 10.1552 31.4495 9.54762C31.397 8.95928 31.4422 8.46069 31.5764 7.66515C31.6164 7.42805 31.6373 7.14931 31.6568 6.87259C31.6589 6.8419 31.6611 6.81104 31.6632 6.78002L31.6632 6.77995C31.6813 6.5214 31.7001 6.25113 31.7311 5.96671C31.8005 5.33029 31.9275 4.66333 32.2137 4.04321C32.496 3.43165 32.9371 2.85657 33.6556 2.40149C34.3797 1.94284 35.4176 1.58605 36.9209 1.46861Z" fill="white"/>
<path fill-rule="evenodd" clip-rule="evenodd" d="M14.5313 34.6562C14.7477 33.3007 15.3056 31.7851 15.7579 30.8042C14.5685 32.6061 12.6295 36.6024 14.3891 38.1723C14.824 38.8206 15.1784 39.8399 15.4417 40.9284C15.5666 41.445 15.6673 41.9605 15.7454 42.4333C14.9692 41.8019 14.279 41.2325 13.8101 40.8418C14.0117 41.3426 14.7621 42.7308 16.1509 44.2779C17.2882 45.1904 18.4748 46.1216 19.358 46.7668C20.5349 47.6264 21.3539 47.9853 22.2994 48.0726C22.7504 48.1142 23.2116 48.0923 23.7158 48.0571C23.841 48.0483 23.9694 48.0387 24.1024 48.0288L24.1033 48.0287L24.104 48.0286C24.5157 47.9979 24.9711 47.9638 25.5119 47.9419C27.7394 47.8516 29.1764 48.4619 29.5464 48.7086C29.0484 47.1347 26.9102 46.749 25.9034 46.753C24.9584 43.8779 24.8696 39.8533 24.9563 38.1189L24.9721 37.8031L24.7178 37.6151C24.0804 37.1437 21.8204 35.2037 21.1965 31.5972L21.198 31.5894C20.6518 34.51 18.9696 35.9775 17.8868 36.6769C16.8155 37.3689 15.6992 37.3663 15.0057 37.1647C14.7703 37.0417 14.5977 36.8049 14.5061 36.3841C14.4078 35.9322 14.4226 35.3371 14.5313 34.6562ZM15.8783 38.4618C16.1783 39.1425 16.4106 39.9149 16.5886 40.651C16.8465 41.7173 17.0061 42.7755 17.0833 43.513C18.1563 44.3715 19.2425 45.2211 20.0541 45.8139C21.1388 46.6063 21.7555 46.8374 22.4079 46.8976C22.7558 46.9297 23.1342 46.9148 23.6336 46.8799C23.7502 46.8718 23.8731 46.8626 24.0027 46.8529C24.2116 46.8373 24.4378 46.8203 24.6828 46.8045C23.8119 43.9141 23.7023 40.2 23.7653 38.3579C23.0242 37.6943 21.9385 36.675 21.198 34.4511C20.532 36.2531 19.577 36.9899 18.5271 37.6681C17.6274 38.2493 16.6924 38.4615 15.8783 38.4618Z" fill="white"/>
<path d="M39.3532 33.3109C39.2873 32.2447 39.3105 31.2131 39.3516 30.5964C38.793 31.2357 37.8942 33.3279 38.7677 36.5826C38.8024 36.6673 38.7934 36.7123 38.7652 36.7647C38.723 36.8431 38.6139 36.9647 38.3791 37.1018C37.9098 37.3757 37.1291 37.6008 36.1578 37.7096C34.2146 37.9274 31.7929 37.6516 30.1688 36.7133C27.4551 35.1453 25.5023 32.5078 24.8807 31.4076C25.2454 32.5447 26.6956 35.4022 29.5785 37.735C31.4944 38.8419 34.1957 39.1168 36.2892 38.8823C37.3361 38.7649 38.3021 38.513 38.974 38.1208C39.3098 37.9248 39.6201 37.6659 39.8041 37.3243C40.0021 36.9566 40.0263 36.5419 39.8595 36.135C39.5755 35.4423 39.4202 34.3927 39.3532 33.3109Z" fill="white"/>
<path fill-rule="evenodd" clip-rule="evenodd" d="M49.9721 45.9178C50.5386 44.9963 50.8328 44.0104 51.0657 43.2297L51.0658 43.2296C51.1272 43.0237 51.1844 42.8321 51.2412 42.6597C51.6442 41.4361 52.5571 40.2711 52.9558 39.8542L53.5867 39.1947C50.0115 38.8192 48.2498 35.5955 47.8158 34.0306C47.8622 35.2519 46.8291 37.8913 42.3252 38.6792C43.1458 38.7029 44.3346 38.582 45.4865 38.1612C45.7484 39.1563 45.6904 41.839 43.3632 44.6095C43.6262 44.4957 44.0246 44.2778 44.4202 43.9763C44.6307 43.8158 44.8516 43.6232 45.0537 43.4001C45.3956 43.8808 45.6388 44.5275 45.7956 45.2426C46.0073 46.2087 46.0378 47.1917 46.0013 47.7883L45.9492 48.6389L46.7637 48.3883C46.8127 48.3732 46.8612 48.3576 46.9091 48.3417C50.549 46.7729 52.5853 44.9098 53.1485 44.1743C52.7485 44.4883 51.6765 45.1593 49.9721 45.9178ZM46.7147 37.5722C46.6039 39.6469 46.0818 41.399 45.7042 42.3324C46.376 43.0566 46.7451 44.0637 46.9482 44.9899C47.0988 45.6772 47.1681 46.3666 47.1881 46.9547C48.9566 46.0744 49.4692 44.4011 49.9215 42.9246C49.9878 42.7079 50.0529 42.4955 50.1204 42.2905C50.4581 41.2653 51.0754 40.3091 51.5732 39.664C50.4544 39.0725 49.0001 37.9139 48.2637 36.1071C47.8519 36.7247 47.3089 37.2054 46.7147 37.5722Z" fill="white"/>
<path d="M50.495 32.6511C53.5409 33.6615 54.4786 35.6701 54.5971 36.4206C54.1843 33.703 51.9399 32.0292 50.8666 31.5312L50.495 32.6511Z" fill="white"/>
<path d="M44.6585 23.7021C43.1022 24.793 41.6041 24.8571 41.1372 24.7826C42.0318 25.4093 43.7687 25.7139 44.6585 23.7021Z" fill="white"/>
<path d="M33.7882 23.4308C32.4194 22.8322 31.2205 22.013 30.5465 21.4508C31.4769 23.3111 34.2574 25.8309 37.8889 24.1006C36.6366 24.3759 35.1695 24.0349 33.7882 23.4308Z" fill="white"/>
<path d="M36.6953 47.6483C36.1736 47.5066 35.3961 47.2031 34.7753 46.7705C34.13 46.3208 33.8177 45.8528 33.8452 45.402C33.4963 46.1507 33.578 47.6483 36.6953 47.6483Z" fill="white"/>
<path d="M38.0297 44.0485C37.1212 44.0268 35.7349 43.8398 34.5478 43.3636C33.3385 42.8785 32.5126 42.1714 32.3645 41.2056C32.0433 42.3816 32.7266 44.5965 38.0297 44.0485Z" fill="white"/>
<path d="M86.6326 23.5728H91.8055V46.5524H86.6326V23.5728Z" fill="white"/>
<path d="M103.955 46.5524C103.049 44.6292 102.154 42.6285 101.269 40.5505C100.385 38.4725 99.5451 36.4167 98.7493 34.3829C97.9535 32.3491 97.2129 30.4037 96.5276 28.5468C95.8644 26.6898 95.2896 25.0319 94.8033 23.5728H100.507C100.949 24.8992 101.424 26.3361 101.933 27.8836C102.463 29.4089 102.994 30.9343 103.524 32.4596C104.077 33.985 104.607 35.444 105.116 36.8367C105.624 38.2294 106.1 39.4342 106.542 40.4511C106.962 39.4342 107.426 38.2294 107.934 36.8367C108.465 35.444 108.996 33.985 109.526 32.4596C110.079 30.9343 110.609 29.4089 111.118 27.8836C111.648 26.3361 112.135 24.8992 112.577 23.5728H118.081C117.573 25.0319 116.987 26.6898 116.324 28.5468C115.661 30.4037 114.931 32.3491 114.135 34.3829C113.339 36.4167 112.499 38.4725 111.615 40.5505C110.731 42.6285 109.836 44.6292 108.929 46.5524H103.955Z" fill="white"/>
<path d="M134.271 46.5524C134.028 45.7566 133.752 44.9387 133.442 44.0986C133.155 43.2586 132.868 42.4185 132.58 41.5785H123.627C123.34 42.4185 123.041 43.2586 122.732 44.0986C122.445 44.9387 122.179 45.7566 121.936 46.5524H116.564C117.426 44.0765 118.244 41.7885 119.018 39.6884C119.792 37.5883 120.543 35.6098 121.273 33.7528C122.025 31.8959 122.754 30.1384 123.461 28.4805C124.191 26.8004 124.943 25.1645 125.716 23.5728H130.657C131.409 25.1645 132.149 26.8004 132.879 28.4805C133.608 30.1384 134.338 31.8959 135.067 33.7528C135.819 35.6098 136.582 37.5883 137.355 39.6884C138.129 41.7885 138.947 44.0765 139.809 46.5524H134.271ZM128.071 28.7789C127.96 29.1105 127.794 29.5637 127.573 30.1384C127.352 30.7132 127.098 31.3764 126.811 32.128C126.523 32.8796 126.203 33.7086 125.849 34.615C125.517 35.5213 125.175 36.4719 124.821 37.4667H131.353C131 36.4719 130.657 35.5213 130.325 34.615C129.994 33.7086 129.673 32.8796 129.364 32.128C129.076 31.3764 128.822 30.7132 128.601 30.1384C128.38 29.5637 128.203 29.1105 128.071 28.7789Z" fill="white"/>
<path d="M158.203 46.5524C156.722 43.9218 155.119 41.3243 153.395 38.7599C151.67 36.1956 149.836 33.7749 147.89 31.498V46.5524H142.784V23.5728H146.995C147.724 24.3024 148.531 25.1977 149.416 26.2588C150.3 27.3199 151.195 28.4584 152.101 29.6742C153.03 30.868 153.947 32.117 154.854 33.4212C155.76 34.7034 156.611 35.9414 157.407 37.1351V23.5728H162.547V46.5524H158.203Z" fill="white"/>
<path d="M68.3505 61.853V58.5726C67.8077 57.7308 67.2963 56.9009 66.8165 56.0828C66.3366 55.2647 65.8843 54.4623 65.4595 53.6756H66.8047C67.1036 54.3207 67.4379 54.9775 67.8077 55.6462C68.1774 56.307 68.5589 56.9442 68.9522 57.5578C69.3377 56.9442 69.7153 56.307 70.085 55.6462C70.4548 54.9775 70.793 54.3207 71.0998 53.6756H72.3742C71.9494 54.4623 71.4971 55.2647 71.0172 56.0828C70.5374 56.8931 70.03 57.7151 69.495 58.549V61.853H68.3505Z" fill="#79AE07"/>
<path d="M72.6414 57.7584C72.6414 57.0583 72.7436 56.4407 72.9482 55.9058C73.1606 55.3709 73.4438 54.9264 73.7978 54.5724C74.1596 54.2105 74.5766 53.9391 75.0486 53.7582C75.5284 53.5773 76.0358 53.4868 76.5707 53.4868C77.0978 53.4868 77.5934 53.5773 78.0575 53.7582C78.5295 53.9391 78.9425 54.2105 79.2965 54.5724C79.6505 54.9264 79.9298 55.3709 80.1343 55.9058C80.3467 56.4407 80.4529 57.0583 80.4529 57.7584C80.4529 58.4585 80.3467 59.076 80.1343 59.611C79.9298 60.1459 79.6505 60.5943 79.2965 60.9562C78.9425 61.3102 78.5295 61.5776 78.0575 61.7586C77.5934 61.9395 77.0978 62.0299 76.5707 62.0299C76.0358 62.0299 75.5284 61.9395 75.0486 61.7586C74.5766 61.5776 74.1596 61.3102 73.7978 60.9562C73.4438 60.5943 73.1606 60.1459 72.9482 59.611C72.7436 59.076 72.6414 58.4585 72.6414 57.7584ZM73.845 57.7584C73.845 58.254 73.9079 58.7063 74.0338 59.1154C74.1596 59.5166 74.3366 59.8588 74.5648 60.142C74.8008 60.4252 75.084 60.6454 75.4144 60.8028C75.7526 60.9522 76.1302 61.027 76.5471 61.027C76.9641 61.027 77.3377 60.9522 77.6681 60.8028C77.9985 60.6454 78.2778 60.4252 78.5059 60.142C78.7419 59.8588 78.9229 59.5166 79.0487 59.1154C79.1746 58.7063 79.2375 58.254 79.2375 57.7584C79.2375 57.2628 79.1746 56.8144 79.0487 56.4132C78.9229 56.0041 78.7419 55.658 78.5059 55.3748C78.2778 55.0916 77.9985 54.8753 77.6681 54.7258C77.3377 54.5685 76.9641 54.4898 76.5471 54.4898C76.1302 54.4898 75.7526 54.5685 75.4144 54.7258C75.084 54.8753 74.8008 55.0916 74.5648 55.3748C74.3366 55.658 74.1596 56.0041 74.0338 56.4132C73.9079 56.8144 73.845 57.2628 73.845 57.7584Z" fill="#79AE07"/>
<path d="M85.2003 62.0299C84.6653 62.0299 84.2012 61.9474 83.8079 61.7822C83.4145 61.617 83.092 61.3928 82.8403 61.1096C82.5885 60.8185 82.3997 60.4763 82.2739 60.083C82.1559 59.6896 82.0969 59.2648 82.0969 58.8086V53.6756H83.2415V58.6788C83.2415 59.4969 83.4224 60.0908 83.7843 60.4606C84.1461 60.8303 84.6181 61.0152 85.2003 61.0152C85.4913 61.0152 85.7549 60.9719 85.9908 60.8854C86.2347 60.791 86.4432 60.6494 86.6162 60.4606C86.7893 60.2718 86.923 60.0318 87.0174 59.7408C87.1118 59.4418 87.159 59.0878 87.159 58.6788V53.6756H88.3036V58.8086C88.3036 59.2648 88.2407 59.6896 88.1148 60.083C87.9968 60.4763 87.808 60.8185 87.5484 61.1096C87.2967 61.3928 86.9742 61.617 86.5808 61.7822C86.1954 61.9474 85.7352 62.0299 85.2003 62.0299Z" fill="#79AE07"/>
<path d="M94.28 58.431C94.4059 58.5883 94.5632 58.7968 94.752 59.0564C94.9487 59.3081 95.1493 59.5913 95.3538 59.906C95.5583 60.2128 95.7589 60.5353 95.9556 60.8736C96.1601 61.2118 96.3332 61.5383 96.4748 61.853H95.224C95.0667 61.554 94.8936 61.2512 94.7048 60.9444C94.5239 60.6376 94.339 60.3465 94.1502 60.0712C93.9614 59.788 93.7726 59.5244 93.5838 59.2806C93.4029 59.0367 93.2377 58.8243 93.0882 58.6434C92.986 58.6512 92.8798 58.6552 92.7696 58.6552C92.6674 58.6552 92.5612 58.6552 92.451 58.6552H91.4244V61.853H90.2798V53.7936C90.6024 53.7149 90.9603 53.6638 91.3536 53.6402C91.7548 53.6087 92.1206 53.593 92.451 53.593C93.5995 53.593 94.4727 53.8093 95.0706 54.242C95.6763 54.6747 95.9792 55.3197 95.9792 56.1772C95.9792 56.72 95.8337 57.1841 95.5426 57.5696C95.2594 57.955 94.8385 58.2422 94.28 58.431ZM92.5454 54.596C92.0577 54.596 91.684 54.6078 91.4244 54.6314V57.7112H92.2386C92.632 57.7112 92.986 57.6915 93.3006 57.6522C93.6153 57.6129 93.8788 57.5381 94.0912 57.428C94.3115 57.3179 94.4806 57.1645 94.5986 56.9678C94.7166 56.7633 94.7756 56.4958 94.7756 56.1654C94.7756 55.8586 94.7166 55.6029 94.5986 55.3984C94.4806 55.1939 94.3193 55.0326 94.1148 54.9146C93.9181 54.7966 93.6821 54.714 93.4068 54.6668C93.1394 54.6196 92.8522 54.596 92.5454 54.596Z" fill="#79AE07"/>
<path d="M100.102 57.7584C100.102 57.0583 100.204 56.4407 100.408 55.9058C100.621 55.3709 100.904 54.9264 101.258 54.5724C101.62 54.2105 102.037 53.9391 102.509 53.7582C102.989 53.5773 103.496 53.4868 104.031 53.4868C104.558 53.4868 105.054 53.5773 105.518 53.7582C105.99 53.9391 106.403 54.2105 106.757 54.5724C107.111 54.9264 107.39 55.3709 107.594 55.9058C107.807 56.4407 107.913 57.0583 107.913 57.7584C107.913 58.4585 107.807 59.076 107.594 59.611C107.39 60.1459 107.111 60.5943 106.757 60.9562C106.403 61.3102 105.99 61.5776 105.518 61.7586C105.054 61.9395 104.558 62.0299 104.031 62.0299C103.496 62.0299 102.989 61.9395 102.509 61.7586C102.037 61.5776 101.62 61.3102 101.258 60.9562C100.904 60.5943 100.621 60.1459 100.408 59.611C100.204 59.076 100.102 58.4585 100.102 57.7584ZM101.305 57.7584C101.305 58.254 101.368 58.7063 101.494 59.1154C101.62 59.5166 101.797 59.8588 102.025 60.142C102.261 60.4252 102.544 60.6454 102.874 60.8028C103.213 60.9522 103.59 61.027 104.007 61.027C104.424 61.027 104.798 60.9522 105.128 60.8028C105.459 60.6454 105.738 60.4252 105.966 60.142C106.202 59.8588 106.383 59.5166 106.509 59.1154C106.635 58.7063 106.698 58.254 106.698 57.7584C106.698 57.2628 106.635 56.8144 106.509 56.4132C106.383 56.0041 106.202 55.658 105.966 55.3748C105.738 55.0916 105.459 54.8753 105.128 54.7258C104.798 54.5685 104.424 54.4898 104.007 54.4898C103.59 54.4898 103.213 54.5685 102.874 54.7258C102.544 54.8753 102.261 55.0916 102.025 55.3748C101.797 55.658 101.62 56.0041 101.494 56.4132C101.368 56.8144 101.305 57.2628 101.305 57.7584Z" fill="#79AE07"/>
<path d="M115.221 61.853C115.048 61.5619 114.847 61.2354 114.619 60.8736C114.399 60.5117 114.159 60.138 113.899 59.7526C113.64 59.3592 113.368 58.962 113.085 58.5608C112.81 58.1596 112.535 57.7741 112.259 57.4044C111.984 57.0268 111.716 56.6728 111.457 56.3424C111.197 56.012 110.957 55.7209 110.737 55.4692V61.853H109.616V53.6756H110.525C110.894 54.0689 111.288 54.5291 111.705 55.0562C112.129 55.5754 112.546 56.1143 112.955 56.6728C113.372 57.2235 113.762 57.7662 114.124 58.3012C114.493 58.8361 114.804 59.312 115.056 59.729V53.6756H116.177V61.853H115.221Z" fill="#79AE07"/>
<path d="M123.121 60.8618V61.853H118.201V53.6756H119.345V60.8618H123.121Z" fill="#79AE07"/>
<path d="M124.32 53.6756H125.464V61.853H124.32V53.6756Z" fill="#79AE07"/>
<path d="M133.094 61.853C132.921 61.5619 132.72 61.2354 132.492 60.8736C132.272 60.5117 132.032 60.138 131.772 59.7526C131.512 59.3592 131.241 58.962 130.958 58.5608C130.683 58.1596 130.407 57.7741 130.132 57.4044C129.857 57.0268 129.589 56.6728 129.33 56.3424C129.07 56.012 128.83 55.7209 128.61 55.4692V61.853H127.489V53.6756H128.397C128.767 54.0689 129.16 54.5291 129.577 55.0562C130.002 55.5754 130.419 56.1143 130.828 56.6728C131.245 57.2235 131.634 57.7662 131.996 58.3012C132.366 58.8361 132.677 59.312 132.928 59.729V53.6756H134.049V61.853H133.094Z" fill="#79AE07"/>
<path d="M136.074 61.853V53.6756H141.065V54.655H137.218V57.0858H140.64V58.0416H137.218V60.8736H141.36V61.853H136.074Z" fill="#79AE07"/>
<path d="M149.062 62.0299C148.488 62.0299 147.965 61.9356 147.493 61.7468C147.021 61.558 146.616 61.2826 146.277 60.9208C145.939 60.5589 145.676 60.1144 145.487 59.5874C145.306 59.0524 145.215 58.4428 145.215 57.7584C145.215 57.074 145.318 56.4683 145.522 55.9412C145.735 55.4063 146.018 54.9579 146.372 54.596C146.726 54.2341 147.139 53.9588 147.611 53.77C148.083 53.5812 148.586 53.4868 149.121 53.4868C149.459 53.4868 149.762 53.5104 150.03 53.5576C150.305 53.6048 150.541 53.6599 150.738 53.7228C150.942 53.7857 151.108 53.8487 151.233 53.9116C151.359 53.9745 151.446 54.0217 151.493 54.0532L151.163 54.9972C151.092 54.95 150.99 54.8989 150.856 54.8438C150.722 54.7887 150.569 54.7337 150.396 54.6786C150.23 54.6235 150.046 54.5803 149.841 54.5488C149.644 54.5095 149.444 54.4898 149.239 54.4898C148.807 54.4898 148.417 54.5645 148.071 54.714C147.725 54.8635 147.43 55.0798 147.186 55.363C146.942 55.6462 146.753 55.9923 146.62 56.4014C146.494 56.8026 146.431 57.2549 146.431 57.7584C146.431 58.2461 146.486 58.6906 146.596 59.0918C146.714 59.493 146.887 59.8391 147.115 60.1302C147.343 60.4134 147.627 60.6336 147.965 60.791C148.311 60.9483 148.712 61.027 149.168 61.027C149.695 61.027 150.132 60.9719 150.478 60.8618C150.824 60.7516 151.084 60.6533 151.257 60.5668L151.552 61.5108C151.497 61.5501 151.399 61.6012 151.257 61.6642C151.115 61.7192 150.938 61.7743 150.726 61.8294C150.514 61.8844 150.266 61.9316 149.983 61.9709C149.699 62.0103 149.393 62.0299 149.062 62.0299Z" fill="#79AE07"/>
<path d="M152.302 57.7584C152.302 57.0583 152.405 56.4407 152.609 55.9058C152.821 55.3709 153.105 54.9264 153.459 54.5724C153.821 54.2105 154.237 53.9391 154.709 53.7582C155.189 53.5773 155.697 53.4868 156.232 53.4868C156.759 53.4868 157.254 53.5773 157.718 53.7582C158.19 53.9391 158.603 54.2105 158.957 54.5724C159.311 54.9264 159.591 55.3709 159.795 55.9058C160.008 56.4407 160.114 57.0583 160.114 57.7584C160.114 58.4585 160.008 59.076 159.795 59.611C159.591 60.1459 159.311 60.5943 158.957 60.9562C158.603 61.3102 158.19 61.5776 157.718 61.7586C157.254 61.9395 156.759 62.0299 156.232 62.0299C155.697 62.0299 155.189 61.9395 154.709 61.7586C154.237 61.5776 153.821 61.3102 153.459 60.9562C153.105 60.5943 152.821 60.1459 152.609 59.611C152.405 59.076 152.302 58.4585 152.302 57.7584ZM153.506 57.7584C153.506 58.254 153.569 58.7063 153.695 59.1154C153.821 59.5166 153.998 59.8588 154.226 60.142C154.462 60.4252 154.745 60.6454 155.075 60.8028C155.414 60.9522 155.791 61.027 156.208 61.027C156.625 61.027 156.999 60.9522 157.329 60.8028C157.659 60.6454 157.939 60.4252 158.167 60.142C158.403 59.8588 158.584 59.5166 158.71 59.1154C158.835 58.7063 158.898 58.254 158.898 57.7584C158.898 57.2628 158.835 56.8144 158.71 56.4132C158.584 56.0041 158.403 55.658 158.167 55.3748C157.939 55.0916 157.659 54.8753 157.329 54.7258C156.999 54.5685 156.625 54.4898 156.208 54.4898C155.791 54.4898 155.414 54.5685 155.075 54.7258C154.745 54.8753 154.462 55.0916 154.226 55.3748C153.998 55.658 153.821 56.0041 153.695 56.4132C153.569 56.8144 153.506 57.2628 153.506 57.7584Z" fill="#79AE07"/>
<path d="M167.061 61.853C166.927 61.499 166.802 61.1528 166.684 60.8146C166.566 60.4684 166.444 60.1184 166.318 59.7644H162.613L161.869 61.853H160.677C160.992 60.9876 161.287 60.1892 161.562 59.4576C161.838 58.7181 162.105 58.018 162.365 57.3572C162.632 56.6964 162.896 56.0671 163.155 55.4692C163.415 54.8635 163.686 54.2656 163.97 53.6756H165.02C165.303 54.2656 165.574 54.8635 165.834 55.4692C166.094 56.0671 166.353 56.6964 166.613 57.3572C166.88 58.018 167.152 58.7181 167.427 59.4576C167.702 60.1892 167.997 60.9876 168.312 61.853H167.061ZM165.987 58.8204C165.736 58.136 165.484 57.4752 165.232 56.838C164.988 56.1929 164.733 55.5754 164.465 54.9854C164.19 55.5754 163.926 56.1929 163.675 56.838C163.431 57.4752 163.187 58.136 162.943 58.8204H165.987Z" fill="#79AE07"/>
<path d="M172.72 62.0299C172.145 62.0299 171.622 61.9356 171.15 61.7468C170.678 61.558 170.273 61.2826 169.935 60.9208C169.597 60.5589 169.333 60.1144 169.144 59.5874C168.963 59.0524 168.873 58.4428 168.873 57.7584C168.873 57.074 168.975 56.4683 169.18 55.9412C169.392 55.4063 169.675 54.9579 170.029 54.596C170.383 54.2341 170.796 53.9588 171.268 53.77C171.74 53.5812 172.244 53.4868 172.779 53.4868C173.117 53.4868 173.42 53.5104 173.687 53.5576C173.963 53.6048 174.199 53.6599 174.395 53.7228C174.6 53.7857 174.765 53.8487 174.891 53.9116C175.017 53.9745 175.103 54.0217 175.15 54.0532L174.82 54.9972C174.749 54.95 174.647 54.8989 174.513 54.8438C174.379 54.7887 174.226 54.7337 174.053 54.6786C173.888 54.6235 173.703 54.5803 173.498 54.5488C173.302 54.5095 173.101 54.4898 172.897 54.4898C172.464 54.4898 172.075 54.5645 171.728 54.714C171.382 54.8635 171.087 55.0798 170.843 55.363C170.6 55.6462 170.411 55.9923 170.277 56.4014C170.151 56.8026 170.088 57.2549 170.088 57.7584C170.088 58.2461 170.143 58.6906 170.253 59.0918C170.371 59.493 170.544 59.8391 170.773 60.1302C171.001 60.4134 171.284 60.6336 171.622 60.791C171.968 60.9483 172.37 61.027 172.826 61.027C173.353 61.027 173.789 60.9719 174.136 60.8618C174.482 60.7516 174.741 60.6533 174.914 60.5668L175.209 61.5108C175.154 61.5501 175.056 61.6012 174.914 61.6642C174.773 61.7192 174.596 61.7743 174.383 61.8294C174.171 61.8844 173.923 61.9316 173.64 61.9709C173.357 62.0103 173.05 62.0299 172.72 62.0299Z" fill="#79AE07"/>
<path d="M181.665 53.6756H182.81V61.853H181.665V58.077H177.665V61.853H176.521V53.6756H177.665V57.0858H181.665V53.6756Z" fill="#79AE07"/>
</svg>
